NotoSansOldPersian-Regular.ufo
<glyph name="uni103A0" format="2">
  <advance width="1111"/>
  <unicode hex="103A0"/>
  <outline>
    <contour>
      <point x="164" y="554" type="curve"/>
      <point x="316" y="609"/>
      <point x="466" y="628"/>
      <point x="947" y="664" type="curve"/>
      <point x="947" y="687" type="line"/>
      <point x="490" y="701"/>
      <point x="292" y="725"/>
      <point x="164" y="770" type="curve"/>
      <point x="170" y="732"/>
      <point x="173" y="696"/>
      <point x="173" y="662" type="curve" smooth="yes"/>
      <point x="173" y="625"/>
      <point x="170" y="589"/>
    </contour>
    <contour>
      <point x="299" y="-98" type="curve"/>
      <point x="325" y="-98" type="line"/>
      <point x="339" y="266"/>
      <point x="362" y="405"/>
      <point x="408" y="528" type="curve"/>
      <point x="368" y="521"/>
      <point x="332" y="518"/>
      <point x="297" y="518" type="curve" smooth="yes"/>
      <point x="261" y="518"/>
      <point x="227" y="521"/>
      <point x="192" y="528" type="curve"/>
      <point x="247" y="381"/>
      <point x="265" y="285"/>
    </contour>
    <contour>
      <point x="555" y="-98" type="curve"/>
      <point x="581" y="-98" type="line"/>
      <point x="596" y="266"/>
      <point x="620" y="405"/>
      <point x="664" y="528" type="curve"/>
      <point x="624" y="521"/>
      <point x="588" y="518"/>
      <point x="553" y="518" type="curve" smooth="yes"/>
      <point x="517" y="518"/>
      <point x="483" y="521"/>
      <point x="448" y="528" type="curve"/>
      <point x="503" y="381"/>
      <point x="521" y="285"/>
    </contour>
    <contour>
      <point x="814" y="-98" type="curve"/>
      <point x="840" y="-98" type="line"/>
      <point x="854" y="266"/>
      <point x="877" y="405"/>
      <point x="923" y="528" type="curve"/>
      <point x="883" y="521"/>
      <point x="847" y="518"/>
      <point x="812" y="518" type="curve" smooth="yes"/>
      <point x="776" y="518"/>
      <point x="742" y="521"/>
      <point x="707" y="528" type="curve"/>
      <point x="762" y="381"/>
      <point x="780" y="285"/>
    </contour>
  </outline>
</glyph>
<glyph name="uni103A1" format="2">
  <advance width="1022"/>
  <unicode hex="103A1"/>
  <outline>
    <contour>
      <point x="155" y="554" type="curve"/>
      <point x="223" y="594"/>
      <point x="315" y="628"/>
      <point x="521" y="661" type="curve"/>
      <point x="521" y="624"/>
      <point x="519" y="589"/>
      <point x="516" y="554" type="curve"/>
      <point x="587" y="595"/>
      <point x="680" y="630"/>
      <point x="897" y="664" type="curve"/>
      <point x="897" y="687" type="line"/>
      <point x="694" y="703"/>
      <point x="579" y="734"/>
      <point x="512" y="770" type="curve"/>
      <point x="516" y="741"/>
      <point x="519" y="714"/>
      <point x="521" y="688" type="curve"/>
      <point x="327" y="704"/>
      <point x="215" y="735"/>
      <point x="150" y="770" type="curve"/>
      <point x="157" y="728"/>
      <point x="160" y="689"/>
      <point x="160" y="652" type="curve" smooth="yes"/>
      <point x="160" y="619"/>
      <point x="158" y="586"/>
    </contour>
    <contour>
      <point x="345" y="-98" type="curve"/>
      <point x="371" y="-98" type="line"/>
      <point x="385" y="266"/>
      <point x="408" y="405"/>
      <point x="454" y="528" type="curve"/>
      <point x="414" y="521"/>
      <point x="378" y="518"/>
      <point x="343" y="518" type="curve" smooth="yes"/>
      <point x="307" y="518"/>
      <point x="273" y="521"/>
      <point x="238" y="528" type="curve"/>
      <point x="293" y="381"/>
      <point x="310" y="285"/>
    </contour>
    <contour>
      <point x="681" y="-98" type="curve"/>
      <point x="707" y="-98" type="line"/>
      <point x="722" y="266"/>
      <point x="745" y="405"/>
      <point x="791" y="528" type="curve"/>
      <point x="751" y="521"/>
      <point x="715" y="518"/>
      <point x="680" y="518" type="curve" smooth="yes"/>
      <point x="644" y="518"/>
      <point x="610" y="521"/>
      <point x="575" y="528" type="curve"/>
      <point x="629" y="381"/>
      <point x="648" y="285"/>
    </contour>
  </outline>
</glyph>
<glyph name="uni103A2" format="2">
  <advance width="1186"/>
  <unicode hex="103A2"/>
  <outline>
    <contour>
      <point x="569" y="-120" type="curve"/>
      <point x="586" y="-104" type="line"/>
      <point x="460" y="79"/>
      <point x="376" y="209"/>
      <point x="326" y="294" type="curve"/>
      <point x="391" y="412"/>
      <point x="467" y="551"/>
      <point x="564" y="747" type="curve"/>
      <point x="545" y="758" type="line"/>
      <point x="383" y="551"/>
      <point x="214" y="366"/>
      <point x="122" y="282" type="curve"/>
      <point x="221" y="201"/>
      <point x="350" y="95"/>
    </contour>
    <contour>
      <point x="666" y="-107" type="curve"/>
      <point x="692" y="-107" type="line"/>
      <point x="707" y="259"/>
      <point x="731" y="398"/>
      <point x="775" y="520" type="curve"/>
      <point x="735" y="514"/>
      <point x="699" y="511"/>
      <point x="665" y="511" type="curve" smooth="yes"/>
      <point x="629" y="511"/>
      <point x="594" y="514"/>
      <point x="559" y="520" type="curve"/>
      <point x="614" y="374"/>
      <point x="632" y="278"/>
    </contour>
    <contour>
      <point x="913" y="-107" type="curve"/>
      <point x="939" y="-107" type="line"/>
      <point x="954" y="259"/>
      <point x="978" y="398"/>
      <point x="1022" y="520" type="curve"/>
      <point x="982" y="514"/>
      <point x="946" y="511"/>
      <point x="912" y="511" type="curve" smooth="yes"/>
      <point x="876" y="511"/>
      <point x="842" y="514"/>
      <point x="807" y="520" type="curve"/>
      <point x="862" y="374"/>
      <point x="879" y="278"/>
    </contour>
    <contour>
      <point x="625" y="546" type="curve"/>
      <point x="695" y="587"/>
      <point x="789" y="623"/>
      <point x="1006" y="655" type="curve"/>
      <point x="1006" y="678" type="line"/>
      <point x="803" y="695"/>
      <point x="688" y="727"/>
      <point x="621" y="762" type="curve"/>
      <point x="628" y="719"/>
      <point x="631" y="681"/>
      <point x="631" y="644" type="curve" smooth="yes"/>
      <point x="631" y="611"/>
      <point x="628" y="579"/>
    </contour>
  </outline>
</glyph>
<glyph name="uni103A3" format="2">
  <advance width="962"/>
  <unicode hex="103A3"/>
  <outline>
    <contour>
      <point x="271" y="-112" type="curve"/>
      <point x="297" y="-112" type="line"/>
      <point x="311" y="381"/>
      <point x="334" y="569"/>
      <point x="380" y="736" type="curve"/>
      <point x="340" y="727"/>
      <point x="304" y="723"/>
      <point x="269" y="723" type="curve" smooth="yes"/>
      <point x="233" y="723"/>
      <point x="198" y="727"/>
      <point x="164" y="736" type="curve"/>
      <point x="219" y="538"/>
      <point x="237" y="407"/>
    </contour>
    <contour>
      <point x="418" y="13" type="curve"/>
      <point x="489" y="53"/>
      <point x="596" y="90"/>
      <point x="813" y="122" type="curve"/>
      <point x="813" y="146" type="line"/>
      <point x="610" y="161"/>
      <point x="481" y="192"/>
      <point x="414" y="229" type="curve"/>
      <point x="421" y="188"/>
      <point x="424" y="150"/>
      <point x="424" y="114" type="curve" smooth="yes"/>
      <point x="424" y="79"/>
      <point x="421" y="46"/>
    </contour>
    <contour>
      <point x="412" y="394" type="curve"/>
      <point x="484" y="434"/>
      <point x="591" y="471"/>
      <point x="808" y="503" type="curve"/>
      <point x="808" y="526" type="line"/>
      <point x="605" y="542"/>
      <point x="475" y="573"/>
      <point x="409" y="610" type="curve"/>
      <point x="416" y="570"/>
      <point x="418" y="532"/>
      <point x="418" y="497" type="curve" smooth="yes"/>
      <point x="418" y="461"/>
      <point x="416" y="428"/>
    </contour>
  </outline>
</glyph>
<glyph name="uni103A4" format="2">
  <advance width="979"/>
  <unicode hex="103A4"/>
  <outline>
    <contour>
      <point x="569" y="-120" type="curve"/>
      <point x="586" y="-105" type="line"/>
      <point x="460" y="79"/>
      <point x="376" y="209"/>
      <point x="326" y="293" type="curve"/>
      <point x="391" y="411"/>
      <point x="467" y="551"/>
      <point x="564" y="747" type="curve"/>
      <point x="545" y="757" type="line"/>
      <point x="383" y="551"/>
      <point x="214" y="366"/>
      <point x="122" y="281" type="curve"/>
      <point x="221" y="201"/>
      <point x="350" y="94"/>
    </contour>
    <contour>
      <point x="706" y="-112" type="curve"/>
      <point x="732" y="-112" type="line"/>
      <point x="746" y="380"/>
      <point x="769" y="569"/>
      <point x="815" y="735" type="curve"/>
      <point x="778" y="728"/>
      <point x="741" y="724"/>
      <point x="704" y="724" type="curve" smooth="yes"/>
      <point x="668" y="724"/>
      <point x="633" y="728"/>
      <point x="599" y="735" type="curve"/>
      <point x="654" y="538"/>
      <point x="672" y="406"/>
    </contour>
  </outline>
</glyph>
<glyph name="uni103A5" format="2">
  <advance width="1509"/>
  <unicode hex="103A5"/>
  <outline>
    <contour>
      <point x="530" y="-120" type="curve"/>
      <point x="551" y="-105" type="line"/>
      <point x="436" y="79"/>
      <point x="358" y="209"/>
      <point x="315" y="293" type="curve"/>
      <point x="374" y="411"/>
      <point x="442" y="551"/>
      <point x="529" y="747" type="curve"/>
      <point x="509" y="757" type="line"/>
      <point x="362" y="551"/>
      <point x="206" y="366"/>
      <point x="122" y="281" type="curve"/>
      <point x="211" y="201"/>
      <point x="331" y="94"/>
    </contour>
    <contour>
      <point x="674" y="-112" type="curve"/>
      <point x="700" y="-112" type="line"/>
      <point x="715" y="380"/>
      <point x="738" y="569"/>
      <point x="783" y="735" type="curve"/>
      <point x="746" y="728"/>
      <point x="709" y="724"/>
      <point x="673" y="724" type="curve" smooth="yes"/>
      <point x="637" y="724"/>
      <point x="602" y="728"/>
      <point x="568" y="735" type="curve"/>
      <point x="622" y="538"/>
      <point x="639" y="406"/>
    </contour>
    <contour>
      <point x="928" y="-112" type="curve"/>
      <point x="954" y="-112" type="line"/>
      <point x="968" y="380"/>
      <point x="991" y="569"/>
      <point x="1037" y="735" type="curve"/>
      <point x="1000" y="728"/>
      <point x="963" y="724"/>
      <point x="927" y="724" type="curve" smooth="yes"/>
      <point x="891" y="724"/>
      <point x="856" y="728"/>
      <point x="821" y="735" type="curve"/>
      <point x="876" y="538"/>
      <point x="894" y="406"/>
    </contour>
    <contour>
      <point x="1047" y="206" type="curve"/>
      <point x="1107" y="246"/>
      <point x="1197" y="283"/>
      <point x="1380" y="315" type="curve"/>
      <point x="1380" y="339" type="line"/>
      <point x="1209" y="354"/>
      <point x="1099" y="387"/>
      <point x="1043" y="422" type="curve"/>
      <point x="1050" y="379"/>
      <point x="1053" y="341"/>
      <point x="1053" y="304" type="curve" smooth="yes"/>
      <point x="1053" y="270"/>
      <point x="1050" y="238"/>
    </contour>
  </outline>
</glyph>
<glyph name="uni103A6" format="2">
  <advance width="1230"/>
  <unicode hex="103A6"/>
  <outline>
    <contour>
      <point x="531" y="-120" type="curve"/>
      <point x="551" y="-105" type="line"/>
      <point x="437" y="79"/>
      <point x="359" y="209"/>
      <point x="316" y="293" type="curve"/>
      <point x="375" y="411"/>
      <point x="442" y="551"/>
      <point x="529" y="747" type="curve"/>
      <point x="510" y="757" type="line"/>
      <point x="363" y="551"/>
      <point x="207" y="366"/>
      <point x="122" y="281" type="curve"/>
      <point x="212" y="201"/>
      <point x="332" y="94"/>
    </contour>
    <contour>
      <point x="559" y="-41" type="curve"/>
      <point x="649" y="-1"/>
      <point x="805" y="36"/>
      <point x="1081" y="68" type="curve"/>
      <point x="1081" y="92" type="line"/>
      <point x="823" y="107"/>
      <point x="639" y="142"/>
      <point x="554" y="175" type="curve"/>
      <point x="563" y="133"/>
      <point x="566" y="95"/>
      <point x="566" y="58" type="curve" smooth="yes"/>
      <point x="566" y="24"/>
      <point x="563" y="-8"/>
    </contour>
    <contour>
      <point x="551" y="214" type="curve"/>
      <point x="644" y="255"/>
      <point x="797" y="291"/>
      <point x="1071" y="323" type="curve"/>
      <point x="1071" y="346" type="line"/>
      <point x="817" y="363"/>
      <point x="632" y="397"/>
      <point x="546" y="430" type="curve"/>
      <point x="556" y="389"/>
      <point x="560" y="352"/>
      <point x="560" y="316" type="curve" smooth="yes"/>
      <point x="560" y="281"/>
      <point x="556" y="248"/>
    </contour>
    <contour>
      <point x="550" y="471" type="curve"/>
      <point x="596" y="507"/>
      <point x="667" y="546"/>
      <point x="809" y="579" type="curve"/>
      <point x="809" y="542"/>
      <point x="805" y="506"/>
      <point x="801" y="471" type="curve"/>
      <point x="849" y="508"/>
      <point x="922" y="548"/>
      <point x="1071" y="582" type="curve"/>
      <point x="1071" y="601" type="line"/>
      <point x="932" y="621"/>
      <point x="843" y="655"/>
      <point x="797" y="687" type="curve"/>
      <point x="803" y="657"/>
      <point x="806" y="630"/>
      <point x="808" y="603" type="curve"/>
      <point x="675" y="623"/>
      <point x="591" y="656"/>
      <point x="546" y="687" type="curve"/>
      <point x="554" y="648"/>
      <point x="557" y="612"/>
      <point x="557" y="577" type="curve" smooth="yes"/>
      <point x="557" y="541"/>
      <point x="554" y="506"/>
    </contour>
  </outline>
</glyph>
<glyph name="uni103A7" format="2">
  <advance width="1464"/>
  <unicode hex="103A7"/>
  <outline>
    <contour>
      <point x="793" y="-120" type="curve"/>
      <point x="814" y="-105" type="line"/>
      <point x="699" y="79"/>
      <point x="621" y="209"/>
      <point x="577" y="293" type="curve"/>
      <point x="636" y="411"/>
      <point x="704" y="551"/>
      <point x="792" y="747" type="curve"/>
      <point x="771" y="757" type="line"/>
      <point x="625" y="551"/>
      <point x="468" y="366"/>
      <point x="385" y="281" type="curve"/>
      <point x="473" y="201"/>
      <point x="594" y="94"/>
    </contour>
    <contour>
      <point x="530" y="-120" type="curve"/>
      <point x="550" y="-105" type="line"/>
      <point x="435" y="79"/>
      <point x="359" y="209"/>
      <point x="316" y="293" type="curve"/>
      <point x="374" y="411"/>
      <point x="442" y="551"/>
      <point x="529" y="747" type="curve"/>
      <point x="508" y="757" type="line"/>
      <point x="363" y="551"/>
      <point x="207" y="366"/>
      <point x="122" y="281" type="curve"/>
      <point x="212" y="201"/>
      <point x="331" y="94"/>
    </contour>
    <contour>
      <point x="936" y="-112" type="curve"/>
      <point x="962" y="-112" type="line"/>
      <point x="977" y="380"/>
      <point x="1001" y="569"/>
      <point x="1045" y="735" type="curve"/>
      <point x="1008" y="728"/>
      <point x="971" y="724"/>
      <point x="935" y="724" type="curve" smooth="yes"/>
      <point x="899" y="724"/>
      <point x="864" y="728"/>
      <point x="829" y="735" type="curve"/>
      <point x="884" y="538"/>
      <point x="902" y="406"/>
    </contour>
    <contour>
      <point x="1191" y="-112" type="curve"/>
      <point x="1217" y="-112" type="line"/>
      <point x="1231" y="380"/>
      <point x="1254" y="569"/>
      <point x="1300" y="735" type="curve"/>
      <point x="1262" y="728"/>
      <point x="1225" y="724"/>
      <point x="1189" y="724" type="curve" smooth="yes"/>
      <point x="1153" y="724"/>
      <point x="1118" y="728"/>
      <point x="1084" y="735" type="curve"/>
      <point x="1139" y="538"/>
      <point x="1156" y="406"/>
    </contour>
  </outline>
</glyph>
<glyph name="uni103A8" format="2">
  <advance width="1067"/>
  <unicode hex="103A8"/>
  <outline>
    <contour>
      <point x="519" y="-107" type="curve"/>
      <point x="545" y="-107" type="line"/>
      <point x="559" y="258"/>
      <point x="582" y="397"/>
      <point x="628" y="519" type="curve"/>
      <point x="589" y="513"/>
      <point x="554" y="510"/>
      <point x="520" y="510" type="curve" smooth="yes"/>
      <point x="483" y="510"/>
      <point x="448" y="513"/>
      <point x="412" y="519" type="curve"/>
      <point x="467" y="374"/>
      <point x="485" y="278"/>
    </contour>
    <contour>
      <point x="272" y="-107" type="curve"/>
      <point x="298" y="-107" type="line"/>
      <point x="312" y="258"/>
      <point x="335" y="397"/>
      <point x="381" y="519" type="curve"/>
      <point x="342" y="513"/>
      <point x="307" y="510"/>
      <point x="273" y="510" type="curve" smooth="yes"/>
      <point x="236" y="510"/>
      <point x="201" y="513"/>
      <point x="165" y="519" type="curve"/>
      <point x="220" y="374"/>
      <point x="238" y="278"/>
    </contour>
    <contour>
      <point x="168" y="545" type="curve"/>
      <point x="251" y="587"/>
      <point x="360" y="622"/>
      <point x="614" y="655" type="curve"/>
      <point x="614" y="678" type="line"/>
      <point x="378" y="695"/>
      <point x="242" y="726"/>
      <point x="164" y="761" type="curve"/>
      <point x="173" y="721"/>
      <point x="176" y="684"/>
      <point x="176" y="649" type="curve" smooth="yes"/>
      <point x="176" y="614"/>
      <point x="173" y="580"/>
    </contour>
    <contour>
      <point x="667" y="310" type="curve"/>
      <point x="715" y="346"/>
      <point x="788" y="388"/>
      <point x="937" y="421" type="curve"/>
      <point x="937" y="441" type="line"/>
      <point x="798" y="460"/>
      <point x="710" y="493"/>
      <point x="663" y="526" type="curve"/>
      <point x="672" y="487"/>
      <point x="675" y="450"/>
      <point x="675" y="414" type="curve" smooth="yes"/>
      <point x="675" y="378"/>
      <point x="672" y="344"/>
    </contour>
  </outline>
</glyph>
<glyph name="uni103A9" format="2">
  <advance width="1166"/>
  <unicode hex="103A9"/>
  <outline>
    <contour>
      <point x="1036" y="-120" type="curve"/>
      <point x="1057" y="-105" type="line"/>
      <point x="941" y="79"/>
      <point x="865" y="209"/>
      <point x="820" y="293" type="curve"/>
      <point x="879" y="411"/>
      <point x="948" y="551"/>
      <point x="1035" y="747" type="curve"/>
      <point x="1014" y="757" type="line"/>
      <point x="868" y="551"/>
      <point x="711" y="366"/>
      <point x="628" y="281" type="curve"/>
      <point x="716" y="201"/>
      <point x="837" y="94"/>
    </contour>
    <contour>
      <point x="134" y="206" type="curve"/>
      <point x="192" y="246"/>
      <point x="282" y="283"/>
      <point x="465" y="315" type="curve"/>
      <point x="465" y="339" type="line"/>
      <point x="295" y="354"/>
      <point x="186" y="387"/>
      <point x="130" y="422" type="curve"/>
      <point x="136" y="380"/>
      <point x="138" y="342"/>
      <point x="138" y="306" type="curve" smooth="yes"/>
      <point x="138" y="272"/>
      <point x="136" y="239"/>
    </contour>
    <contour>
      <point x="545" y="-112" type="curve"/>
      <point x="571" y="-112" type="line"/>
      <point x="585" y="380"/>
      <point x="608" y="569"/>
      <point x="654" y="735" type="curve"/>
      <point x="617" y="728"/>
      <point x="580" y="724"/>
      <point x="544" y="724" type="curve" smooth="yes"/>
      <point x="508" y="724"/>
      <point x="473" y="728"/>
      <point x="438" y="735" type="curve"/>
      <point x="493" y="538"/>
      <point x="511" y="406"/>
    </contour>
  </outline>
</glyph>
<glyph name="uni103AA" format="2">
  <advance width="1235"/>
  <unicode hex="103AA"/>
  <outline>
    <contour>
      <point x="786" y="-120" type="curve"/>
      <point x="807" y="-105" type="line"/>
      <point x="691" y="79"/>
      <point x="613" y="209"/>
      <point x="570" y="293" type="curve"/>
      <point x="629" y="411"/>
      <point x="698" y="551"/>
      <point x="785" y="747" type="curve"/>
      <point x="764" y="757" type="line"/>
      <point x="625" y="560"/>
      <point x="476" y="383"/>
      <point x="390" y="294" type="curve"/>
      <point x="259" y="313"/>
      <point x="173" y="346"/>
      <point x="130" y="376" type="curve"/>
      <point x="138" y="337"/>
      <point x="140" y="300"/>
      <point x="140" y="264" type="curve" smooth="yes"/>
      <point x="140" y="229"/>
      <point x="138" y="195"/>
      <point x="134" y="161" type="curve"/>
      <point x="180" y="197"/>
      <point x="249" y="237"/>
      <point x="392" y="268" type="curve"/>
      <point x="478" y="190"/>
      <point x="596" y="83"/>
    </contour>
    <contour>
      <point x="815" y="-47" type="curve"/>
      <point x="863" y="-11"/>
      <point x="934" y="29"/>
      <point x="1085" y="63" type="curve"/>
      <point x="1085" y="83" type="line"/>
      <point x="946" y="102"/>
      <point x="856" y="136"/>
      <point x="811" y="168" type="curve"/>
      <point x="819" y="129"/>
      <point x="822" y="92"/>
      <point x="822" y="56" type="curve" smooth="yes"/>
      <point x="822" y="21"/>
      <point x="819" y="-14"/>
    </contour>
    <contour>
      <point x="815" y="211" type="curve"/>
      <point x="863" y="248"/>
      <point x="934" y="289"/>
      <point x="1085" y="322" type="curve"/>
      <point x="1085" y="343" type="line"/>
      <point x="946" y="362"/>
      <point x="856" y="396"/>
      <point x="811" y="427" type="curve"/>
      <point x="819" y="388"/>
      <point x="822" y="351"/>
      <point x="822" y="315" type="curve" smooth="yes"/>
      <point x="822" y="280"/>
      <point x="819" y="246"/>
    </contour>
    <contour>
      <point x="815" y="471" type="curve"/>
      <point x="863" y="508"/>
      <point x="934" y="548"/>
      <point x="1085" y="582" type="curve"/>
      <point x="1085" y="601" type="line"/>
      <point x="946" y="621"/>
      <point x="856" y="655"/>
      <point x="811" y="687" type="curve"/>
      <point x="819" y="648"/>
      <point x="822" y="611"/>
      <point x="822" y="575" type="curve" smooth="yes"/>
      <point x="822" y="539"/>
      <point x="819" y="505"/>
    </contour>
  </outline>
</glyph>
<glyph name="uni103AB" format="2">
  <advance width="1189"/>
  <unicode hex="103AB"/>
  <outline>
    <contour>
      <point x="916" y="-112" type="curve"/>
      <point x="941" y="-112" type="line"/>
      <point x="957" y="381"/>
      <point x="980" y="569"/>
      <point x="1026" y="736" type="curve"/>
      <point x="988" y="728"/>
      <point x="951" y="724"/>
      <point x="915" y="724" type="curve" smooth="yes"/>
      <point x="879" y="724"/>
      <point x="844" y="728"/>
      <point x="810" y="736" type="curve"/>
      <point x="864" y="538"/>
      <point x="881" y="407"/>
    </contour>
    <contour>
      <point x="160" y="107" type="curve"/>
      <point x="208" y="144"/>
      <point x="279" y="185"/>
      <point x="430" y="217" type="curve"/>
      <point x="430" y="238" type="line"/>
      <point x="291" y="257"/>
      <point x="201" y="291"/>
      <point x="156" y="322" type="curve"/>
      <point x="164" y="283"/>
      <point x="167" y="246"/>
      <point x="167" y="210" type="curve" smooth="yes"/>
      <point x="167" y="175"/>
      <point x="164" y="141"/>
    </contour>
    <contour>
      <point x="157" y="363" type="curve"/>
      <point x="204" y="399"/>
      <point x="277" y="439"/>
      <point x="428" y="473" type="curve"/>
      <point x="428" y="493" type="line"/>
      <point x="289" y="512"/>
      <point x="198" y="546"/>
      <point x="153" y="578" type="curve"/>
      <point x="161" y="539"/>
      <point x="164" y="502"/>
      <point x="164" y="466" type="curve" smooth="yes"/>
      <point x="164" y="431"/>
      <point x="161" y="397"/>
    </contour>
    <contour>
      <point x="504" y="-112" type="curve"/>
      <point x="530" y="-112" type="line"/>
      <point x="546" y="381"/>
      <point x="569" y="569"/>
      <point x="614" y="736" type="curve"/>
      <point x="577" y="728"/>
      <point x="540" y="724"/>
      <point x="504" y="724" type="curve" smooth="yes"/>
      <point x="468" y="724"/>
      <point x="433" y="728"/>
      <point x="399" y="736" type="curve"/>
      <point x="454" y="538"/>
      <point x="471" y="407"/>
    </contour>
    <contour>
      <point x="714" y="-107" type="curve"/>
      <point x="740" y="-107" type="line"/>
      <point x="755" y="259"/>
      <point x="777" y="398"/>
      <point x="823" y="520" type="curve"/>
      <point x="783" y="514"/>
      <point x="747" y="511"/>
      <point x="713" y="511" type="curve" smooth="yes"/>
      <point x="677" y="511"/>
      <point x="642" y="514"/>
      <point x="607" y="520" type="curve"/>
      <point x="662" y="374"/>
      <point x="680" y="278"/>
    </contour>
  </outline>
</glyph>
<glyph name="uni103AC" format="2">
  <advance width="1273"/>
  <unicode hex="103AC"/>
  <outline>
    <contour>
      <point x="762" y="-112" type="curve"/>
      <point x="788" y="-112" type="line"/>
      <point x="802" y="381"/>
      <point x="826" y="569"/>
      <point x="871" y="736" type="curve"/>
      <point x="834" y="728"/>
      <point x="797" y="724"/>
      <point x="760" y="724" type="curve" smooth="yes"/>
      <point x="724" y="724"/>
      <point x="689" y="728"/>
      <point x="655" y="736" type="curve"/>
      <point x="710" y="538"/>
      <point x="728" y="407"/>
    </contour>
    <contour>
      <point x="271" y="-112" type="curve"/>
      <point x="297" y="-112" type="line"/>
      <point x="311" y="381"/>
      <point x="334" y="569"/>
      <point x="380" y="736" type="curve"/>
      <point x="342" y="728"/>
      <point x="305" y="724"/>
      <point x="269" y="724" type="curve" smooth="yes"/>
      <point x="233" y="724"/>
      <point x="198" y="728"/>
      <point x="164" y="736" type="curve"/>
      <point x="219" y="538"/>
      <point x="237" y="407"/>
    </contour>
    <contour>
      <point x="515" y="-112" type="curve"/>
      <point x="541" y="-112" type="line"/>
      <point x="555" y="381"/>
      <point x="579" y="569"/>
      <point x="624" y="736" type="curve"/>
      <point x="587" y="728"/>
      <point x="550" y="724"/>
      <point x="513" y="724" type="curve" smooth="yes"/>
      <point x="477" y="724"/>
      <point x="442" y="728"/>
      <point x="408" y="736" type="curve"/>
      <point x="463" y="538"/>
      <point x="481" y="407"/>
    </contour>
    <contour>
      <point x="873" y="229" type="curve"/>
      <point x="921" y="265"/>
      <point x="992" y="307"/>
      <point x="1143" y="339" type="curve"/>
      <point x="1143" y="360" type="line"/>
      <point x="1004" y="378"/>
      <point x="914" y="412"/>
      <point x="869" y="445" type="curve"/>
      <point x="877" y="405"/>
      <point x="879" y="368"/>
      <point x="879" y="332" type="curve" smooth="yes"/>
      <point x="879" y="297"/>
      <point x="877" y="263"/>
    </contour>
  </outline>
</glyph>
<glyph name="uni103AD" format="2">
  <advance width="792"/>
  <unicode hex="103AD"/>
  <outline>
    <contour>
      <point x="519" y="-107" type="curve"/>
      <point x="545" y="-107" type="line"/>
      <point x="559" y="258"/>
      <point x="583" y="397"/>
      <point x="628" y="519" type="curve"/>
      <point x="589" y="513"/>
      <point x="554" y="510"/>
      <point x="520" y="510" type="curve" smooth="yes"/>
      <point x="483" y="510"/>
      <point x="448" y="513"/>
      <point x="412" y="519" type="curve"/>
      <point x="467" y="374"/>
      <point x="485" y="278"/>
    </contour>
    <contour>
      <point x="272" y="-107" type="curve"/>
      <point x="298" y="-107" type="line"/>
      <point x="312" y="258"/>
      <point x="336" y="397"/>
      <point x="381" y="519" type="curve"/>
      <point x="342" y="513"/>
      <point x="307" y="510"/>
      <point x="273" y="510" type="curve" smooth="yes"/>
      <point x="236" y="510"/>
      <point x="201" y="513"/>
      <point x="165" y="519" type="curve"/>
      <point x="220" y="374"/>
      <point x="238" y="278"/>
    </contour>
    <contour>
      <point x="135" y="545" type="curve"/>
      <point x="219" y="587"/>
      <point x="411" y="622"/>
      <point x="664" y="655" type="curve"/>
      <point x="664" y="678" type="line"/>
      <point x="429" y="695"/>
      <point x="209" y="726"/>
      <point x="131" y="761" type="curve"/>
      <point x="139" y="720"/>
      <point x="142" y="683"/>
      <point x="142" y="647" type="curve" smooth="yes"/>
      <point x="142" y="612"/>
      <point x="139" y="579"/>
    </contour>
  </outline>
</glyph>
<glyph name="uni103AE" format="2">
  <advance width="1108"/>
  <unicode hex="103AE"/>
  <outline>
    <contour>
      <point x="835" y="-112" type="curve"/>
      <point x="859" y="-112" type="line"/>
      <point x="875" y="381"/>
      <point x="898" y="569"/>
      <point x="944" y="736" type="curve"/>
      <point x="907" y="728"/>
      <point x="870" y="724"/>
      <point x="833" y="724" type="curve" smooth="yes"/>
      <point x="797" y="724"/>
      <point x="762" y="728"/>
      <point x="728" y="736" type="curve"/>
      <point x="783" y="538"/>
      <point x="800" y="407"/>
    </contour>
    <contour>
      <point x="168" y="-47" type="curve"/>
      <point x="220" y="-10"/>
      <point x="298" y="30"/>
      <point x="462" y="64" type="curve"/>
      <point x="462" y="83" type="line"/>
      <point x="310" y="103"/>
      <point x="215" y="136"/>
      <point x="164" y="169" type="curve"/>
      <point x="173" y="130"/>
      <point x="176" y="94"/>
      <point x="176" y="59" type="curve" smooth="yes"/>
      <point x="176" y="23"/>
      <point x="173" y="-12"/>
    </contour>
    <contour>
      <point x="168" y="212" type="curve"/>
      <point x="220" y="248"/>
      <point x="298" y="290"/>
      <point x="462" y="322" type="curve"/>
      <point x="462" y="343" type="line"/>
      <point x="310" y="363"/>
      <point x="215" y="396"/>
      <point x="164" y="428" type="curve"/>
      <point x="173" y="389"/>
      <point x="176" y="353"/>
      <point x="176" y="318" type="curve" smooth="yes"/>
      <point x="176" y="282"/>
      <point x="173" y="247"/>
    </contour>
    <contour>
      <point x="168" y="472" type="curve"/>
      <point x="220" y="508"/>
      <point x="298" y="549"/>
      <point x="462" y="582" type="curve"/>
      <point x="462" y="602" type="line"/>
      <point x="310" y="621"/>
      <point x="215" y="655"/>
      <point x="164" y="688" type="curve"/>
      <point x="173" y="649"/>
      <point x="176" y="612"/>
      <point x="176" y="577" type="curve" smooth="yes"/>
      <point x="176" y="541"/>
      <point x="173" y="506"/>
    </contour>
    <contour>
      <point x="580" y="-112" type="curve"/>
      <point x="606" y="-112" type="line"/>
      <point x="622" y="381"/>
      <point x="645" y="569"/>
      <point x="689" y="736" type="curve"/>
      <point x="652" y="728"/>
      <point x="615" y="724"/>
      <point x="579" y="724" type="curve" smooth="yes"/>
      <point x="543" y="724"/>
      <point x="508" y="728"/>
      <point x="473" y="736" type="curve"/>
      <point x="528" y="538"/>
      <point x="546" y="407"/>
    </contour>
  </outline>
</glyph>
<glyph name="uni103AF" format="2">
  <advance width="1349"/>
  <unicode hex="103AF"/>
  <outline>
    <contour>
      <point x="530" y="-120" type="curve"/>
      <point x="551" y="-105" type="line"/>
      <point x="437" y="79"/>
      <point x="359" y="209"/>
      <point x="316" y="293" type="curve"/>
      <point x="374" y="411"/>
      <point x="442" y="551"/>
      <point x="529" y="747" type="curve"/>
      <point x="510" y="757" type="line"/>
      <point x="363" y="551"/>
      <point x="207" y="366"/>
      <point x="122" y="281" type="curve"/>
      <point x="212" y="201"/>
      <point x="332" y="94"/>
    </contour>
    <contour>
      <point x="541" y="-33" type="curve"/>
      <point x="614" y="8"/>
      <point x="733" y="44"/>
      <point x="959" y="76" type="curve"/>
      <point x="959" y="99" type="line"/>
      <point x="746" y="116"/>
      <point x="606" y="150"/>
      <point x="537" y="183" type="curve"/>
      <point x="544" y="141"/>
      <point x="546" y="104"/>
      <point x="546" y="68" type="curve" smooth="yes"/>
      <point x="546" y="33"/>
      <point x="544" y="1"/>
    </contour>
    <contour>
      <point x="631" y="197" type="curve"/>
      <point x="683" y="233"/>
      <point x="761" y="274"/>
      <point x="924" y="307" type="curve"/>
      <point x="924" y="327" type="line"/>
      <point x="772" y="346"/>
      <point x="677" y="380"/>
      <point x="627" y="411" type="curve"/>
      <point x="636" y="373"/>
      <point x="639" y="337"/>
      <point x="639" y="302" type="curve" smooth="yes"/>
      <point x="639" y="266"/>
      <point x="636" y="232"/>
    </contour>
    <contour>
      <point x="534" y="424" type="curve"/>
      <point x="610" y="465"/>
      <point x="725" y="501"/>
      <point x="952" y="534" type="curve"/>
      <point x="952" y="557" type="line"/>
      <point x="741" y="573"/>
      <point x="601" y="608"/>
      <point x="529" y="640" type="curve"/>
      <point x="538" y="599"/>
      <point x="541" y="562"/>
      <point x="541" y="525" type="curve" smooth="yes"/>
      <point x="541" y="491"/>
      <point x="538" y="457"/>
    </contour>
    <contour>
      <point x="1076" y="-112" type="curve"/>
      <point x="1102" y="-112" type="line"/>
      <point x="1118" y="380"/>
      <point x="1141" y="569"/>
      <point x="1186" y="735" type="curve"/>
      <point x="1149" y="728"/>
      <point x="1112" y="724"/>
      <point x="1076" y="724" type="curve" smooth="yes"/>
      <point x="1040" y="724"/>
      <point x="1005" y="728"/>
      <point x="971" y="735" type="curve"/>
      <point x="1026" y="538"/>
      <point x="1043" y="406"/>
    </contour>
  </outline>
</glyph>
<glyph name="uni103B0" format="2">
  <advance width="1152"/>
  <unicode hex="103B0"/>
  <outline>
    <contour>
      <point x="759" y="-120" type="curve"/>
      <point x="780" y="-105" type="line"/>
      <point x="664" y="79"/>
      <point x="586" y="209"/>
      <point x="543" y="293" type="curve"/>
      <point x="602" y="411"/>
      <point x="671" y="551"/>
      <point x="758" y="747" type="curve"/>
      <point x="737" y="757" type="line"/>
      <point x="592" y="551"/>
      <point x="434" y="366"/>
      <point x="351" y="281" type="curve"/>
      <point x="439" y="201"/>
      <point x="559" y="94"/>
    </contour>
    <contour>
      <point x="270" y="-112" type="curve"/>
      <point x="296" y="-112" type="line"/>
      <point x="311" y="380"/>
      <point x="334" y="569"/>
      <point x="380" y="735" type="curve"/>
      <point x="342" y="728"/>
      <point x="305" y="724"/>
      <point x="269" y="724" type="curve" smooth="yes"/>
      <point x="233" y="724"/>
      <point x="198" y="728"/>
      <point x="164" y="735" type="curve"/>
      <point x="218" y="538"/>
      <point x="237" y="406"/>
    </contour>
    <contour>
      <point x="879" y="-112" type="curve"/>
      <point x="905" y="-112" type="line"/>
      <point x="920" y="380"/>
      <point x="944" y="569"/>
      <point x="988" y="735" type="curve"/>
      <point x="951" y="728"/>
      <point x="914" y="724"/>
      <point x="878" y="724" type="curve" smooth="yes"/>
      <point x="842" y="724"/>
      <point x="807" y="728"/>
      <point x="772" y="735" type="curve"/>
      <point x="827" y="538"/>
      <point x="845" y="406"/>
    </contour>
  </outline>
</glyph>
<glyph name="uni103B1" format="2">
  <advance width="1134"/>
  <unicode hex="103B1"/>
  <outline>
    <contour>
      <point x="163" y="136" type="curve"/>
      <point x="361" y="190"/>
      <point x="465" y="209"/>
      <point x="984" y="242" type="curve"/>
      <point x="984" y="268" type="line"/>
      <point x="491" y="284"/>
      <point x="330" y="307"/>
      <point x="163" y="352" type="curve"/>
      <point x="172" y="315"/>
      <point x="176" y="278"/>
      <point x="176" y="242" type="curve" smooth="yes"/>
      <point x="176" y="206"/>
      <point x="172" y="171"/>
    </contour>
    <contour>
      <point x="468" y="-116" type="curve"/>
      <point x="488" y="-116" type="line"/>
      <point x="508" y="23"/>
      <point x="542" y="111"/>
      <point x="573" y="158" type="curve"/>
      <point x="534" y="150"/>
      <point x="497" y="147"/>
      <point x="461" y="147" type="curve" smooth="yes"/>
      <point x="426" y="147"/>
      <point x="392" y="150"/>
      <point x="357" y="154" type="curve"/>
      <point x="393" y="106"/>
      <point x="435" y="34"/>
    </contour>
    <contour>
      <point x="722" y="-114" type="curve"/>
      <point x="743" y="-114" type="line"/>
      <point x="763" y="25"/>
      <point x="796" y="116"/>
      <point x="828" y="160" type="curve"/>
      <point x="789" y="153"/>
      <point x="753" y="150"/>
      <point x="718" y="150" type="curve" smooth="yes"/>
      <point x="682" y="150"/>
      <point x="647" y="153"/>
      <point x="612" y="157" type="curve"/>
      <point x="650" y="108"/>
      <point x="690" y="37"/>
    </contour>
    <contour>
      <point x="379" y="345" type="curve"/>
      <point x="525" y="400"/>
      <point x="595" y="418"/>
      <point x="978" y="452" type="curve"/>
      <point x="978" y="478" type="line"/>
      <point x="613" y="492"/>
      <point x="501" y="515"/>
      <point x="379" y="561" type="curve"/>
      <point x="385" y="521"/>
      <point x="388" y="485"/>
      <point x="388" y="451" type="curve" smooth="yes"/>
      <point x="388" y="415"/>
      <point x="385" y="380"/>
    </contour>
    <contour>
      <point x="163" y="547" type="curve"/>
      <point x="361" y="601"/>
      <point x="465" y="619"/>
      <point x="984" y="653" type="curve"/>
      <point x="984" y="679" type="line"/>
      <point x="491" y="695"/>
      <point x="330" y="718"/>
      <point x="163" y="762" type="curve"/>
      <point x="172" y="725"/>
      <point x="176" y="688"/>
      <point x="176" y="652" type="curve" smooth="yes"/>
      <point x="176" y="616"/>
      <point x="172" y="581"/>
    </contour>
  </outline>
</glyph>
<glyph name="uni103B2" format="2">
  <advance width="974"/>
  <unicode hex="103B2"/>
  <outline>
    <contour>
      <point x="701" y="-112" type="curve"/>
      <point x="727" y="-112" type="line"/>
      <point x="741" y="381"/>
      <point x="765" y="569"/>
      <point x="810" y="736" type="curve"/>
      <point x="773" y="728"/>
      <point x="736" y="724"/>
      <point x="699" y="724" type="curve" smooth="yes"/>
      <point x="663" y="724"/>
      <point x="628" y="728"/>
      <point x="594" y="736" type="curve"/>
      <point x="649" y="538"/>
      <point x="666" y="407"/>
    </contour>
    <contour>
      <point x="155" y="78" type="curve"/>
      <point x="243" y="120"/>
      <point x="332" y="155"/>
      <point x="606" y="187" type="curve"/>
      <point x="606" y="211" type="line"/>
      <point x="350" y="227"/>
      <point x="234" y="261"/>
      <point x="149" y="294" type="curve"/>
      <point x="158" y="250"/>
      <point x="161" y="211"/>
      <point x="161" y="173" type="curve" smooth="yes"/>
      <point x="161" y="140"/>
      <point x="159" y="110"/>
    </contour>
    <contour>
      <point x="146" y="334" type="curve"/>
      <point x="238" y="374"/>
      <point x="324" y="409"/>
      <point x="598" y="443" type="curve"/>
      <point x="598" y="465" type="line"/>
      <point x="344" y="482"/>
      <point x="227" y="516"/>
      <point x="141" y="549" type="curve"/>
      <point x="151" y="508"/>
      <point x="154" y="471"/>
      <point x="154" y="435" type="curve" smooth="yes"/>
      <point x="154" y="401"/>
      <point x="151" y="367"/>
    </contour>
  </outline>
</glyph>
<glyph name="uni103B3" format="2">
  <advance width="1159"/>
  <unicode hex="103B3"/>
  <outline>
    <contour>
      <point x="768" y="-120" type="curve"/>
      <point x="788" y="-105" type="line"/>
      <point x="673" y="79"/>
      <point x="597" y="209"/>
      <point x="552" y="293" type="curve"/>
      <point x="611" y="411"/>
      <point x="680" y="551"/>
      <point x="767" y="747" type="curve"/>
      <point x="745" y="757" type="line"/>
      <point x="600" y="551"/>
      <point x="443" y="366"/>
      <point x="360" y="281" type="curve"/>
      <point x="448" y="201"/>
      <point x="569" y="94"/>
    </contour>
    <contour>
      <point x="270" y="-112" type="curve"/>
      <point x="296" y="-112" type="line"/>
      <point x="311" y="380"/>
      <point x="334" y="569"/>
      <point x="379" y="735" type="curve"/>
      <point x="342" y="728"/>
      <point x="305" y="724"/>
      <point x="269" y="724" type="curve" smooth="yes"/>
      <point x="233" y="724"/>
      <point x="198" y="728"/>
      <point x="164" y="735" type="curve"/>
      <point x="218" y="538"/>
      <point x="236" y="406"/>
    </contour>
    <contour>
      <point x="1031" y="-120" type="curve"/>
      <point x="1050" y="-105" type="line"/>
      <point x="936" y="79"/>
      <point x="858" y="209"/>
      <point x="815" y="293" type="curve"/>
      <point x="873" y="411"/>
      <point x="941" y="551"/>
      <point x="1029" y="747" type="curve"/>
      <point x="1009" y="757" type="line"/>
      <point x="863" y="551"/>
      <point x="706" y="366"/>
      <point x="623" y="281" type="curve"/>
      <point x="711" y="201"/>
      <point x="831" y="94"/>
    </contour>
  </outline>
</glyph>
<glyph name="uni103B4" format="2">
  <advance width="1020"/>
  <unicode hex="103B4"/>
  <outline>
    <contour>
      <point x="893" y="-120" type="curve"/>
      <point x="911" y="-105" type="line"/>
      <point x="796" y="79"/>
      <point x="720" y="209"/>
      <point x="677" y="293" type="curve"/>
      <point x="735" y="411"/>
      <point x="803" y="551"/>
      <point x="891" y="747" type="curve"/>
      <point x="869" y="757" type="line"/>
      <point x="725" y="551"/>
      <point x="568" y="366"/>
      <point x="484" y="281" type="curve"/>
      <point x="573" y="201"/>
      <point x="692" y="94"/>
    </contour>
    <contour>
      <point x="163" y="-54" type="curve"/>
      <point x="252" y="-12"/>
      <point x="367" y="23"/>
      <point x="643" y="55" type="curve"/>
      <point x="643" y="79" type="line"/>
      <point x="386" y="96"/>
      <point x="243" y="129"/>
      <point x="158" y="162" type="curve"/>
      <point x="166" y="120"/>
      <point x="170" y="82"/>
      <point x="170" y="45" type="curve" smooth="yes"/>
      <point x="170" y="11"/>
      <point x="167" y="-21"/>
    </contour>
    <contour>
      <point x="156" y="397" type="curve"/>
      <point x="247" y="437"/>
      <point x="360" y="474"/>
      <point x="634" y="506" type="curve"/>
      <point x="634" y="530" type="line"/>
      <point x="379" y="545"/>
      <point x="236" y="580"/>
      <point x="149" y="613" type="curve"/>
      <point x="160" y="570"/>
      <point x="163" y="532"/>
      <point x="163" y="495" type="curve" smooth="yes"/>
      <point x="163" y="461"/>
      <point x="160" y="429"/>
    </contour>
  </outline>
</glyph>
<glyph name="uni103B5" format="2">
  <advance width="1231"/>
  <unicode hex="103B5"/>
  <outline>
    <contour>
      <point x="793" y="-120" type="curve"/>
      <point x="814" y="-105" type="line"/>
      <point x="700" y="79"/>
      <point x="622" y="209"/>
      <point x="578" y="293" type="curve"/>
      <point x="636" y="411"/>
      <point x="705" y="551"/>
      <point x="792" y="747" type="curve"/>
      <point x="771" y="757" type="line"/>
      <point x="626" y="551"/>
      <point x="468" y="366"/>
      <point x="385" y="281" type="curve"/>
      <point x="474" y="201"/>
      <point x="594" y="94"/>
    </contour>
    <contour>
      <point x="531" y="-120" type="curve"/>
      <point x="550" y="-105" type="line"/>
      <point x="436" y="79"/>
      <point x="359" y="209"/>
      <point x="316" y="293" type="curve"/>
      <point x="375" y="411"/>
      <point x="442" y="551"/>
      <point x="529" y="747" type="curve"/>
      <point x="509" y="757" type="line"/>
      <point x="363" y="551"/>
      <point x="207" y="366"/>
      <point x="123" y="281" type="curve"/>
      <point x="212" y="201"/>
      <point x="332" y="94"/>
    </contour>
    <contour>
      <point x="757" y="81" type="curve"/>
      <point x="815" y="123"/>
      <point x="905" y="158"/>
      <point x="1088" y="190" type="curve"/>
      <point x="1088" y="214" type="line"/>
      <point x="918" y="231"/>
      <point x="809" y="262"/>
      <point x="753" y="297" type="curve"/>
      <point x="759" y="255"/>
      <point x="761" y="218"/>
      <point x="761" y="181" type="curve" smooth="yes"/>
      <point x="761" y="147"/>
      <point x="759" y="114"/>
    </contour>
    <contour>
      <point x="757" y="344" type="curve"/>
      <point x="815" y="384"/>
      <point x="905" y="421"/>
      <point x="1088" y="453" type="curve"/>
      <point x="1088" y="476" type="line"/>
      <point x="918" y="492"/>
      <point x="809" y="525"/>
      <point x="753" y="560" type="curve"/>
      <point x="759" y="518"/>
      <point x="761" y="480"/>
      <point x="761" y="444" type="curve" smooth="yes"/>
      <point x="761" y="409"/>
      <point x="759" y="377"/>
    </contour>
  </outline>
</glyph>
<glyph name="uni103B6" format="2">
  <advance width="1204"/>
  <unicode hex="103B6"/>
  <outline>
    <contour>
      <point x="931" y="-112" type="curve"/>
      <point x="957" y="-112" type="line"/>
      <point x="972" y="381"/>
      <point x="994" y="569"/>
      <point x="1040" y="736" type="curve"/>
      <point x="1003" y="728"/>
      <point x="966" y="724"/>
      <point x="930" y="724" type="curve" smooth="yes"/>
      <point x="894" y="724"/>
      <point x="859" y="728"/>
      <point x="824" y="736" type="curve"/>
      <point x="879" y="538"/>
      <point x="897" y="407"/>
    </contour>
    <contour>
      <point x="134" y="190" type="curve"/>
      <point x="182" y="227"/>
      <point x="295" y="268"/>
      <point x="445" y="300" type="curve"/>
      <point x="445" y="321" type="line"/>
      <point x="305" y="341"/>
      <point x="174" y="374"/>
      <point x="130" y="406" type="curve"/>
      <point x="138" y="366"/>
      <point x="141" y="329"/>
      <point x="141" y="294" type="curve" smooth="yes"/>
      <point x="141" y="259"/>
      <point x="138" y="225"/>
    </contour>
    <contour>
      <point x="520" y="-112" type="curve"/>
      <point x="546" y="-112" type="line"/>
      <point x="562" y="381"/>
      <point x="584" y="569"/>
      <point x="629" y="736" type="curve"/>
      <point x="592" y="728"/>
      <point x="555" y="724"/>
      <point x="519" y="724" type="curve" smooth="yes"/>
      <point x="483" y="724"/>
      <point x="448" y="728"/>
      <point x="413" y="736" type="curve"/>
      <point x="468" y="538"/>
      <point x="486" y="407"/>
    </contour>
    <contour>
      <point x="729" y="-107" type="curve"/>
      <point x="755" y="-107" type="line"/>
      <point x="770" y="259"/>
      <point x="793" y="398"/>
      <point x="838" y="520" type="curve"/>
      <point x="799" y="514"/>
      <point x="762" y="511"/>
      <point x="728" y="511" type="curve" smooth="yes"/>
      <point x="692" y="511"/>
      <point x="657" y="514"/>
      <point x="623" y="520" type="curve"/>
      <point x="677" y="374"/>
      <point x="694" y="278"/>
    </contour>
  </outline>
</glyph>
<glyph name="uni103B7" format="2">
  <advance width="1166"/>
  <unicode hex="103B7"/>
  <outline>
    <contour>
      <point x="762" y="-120" type="curve"/>
      <point x="783" y="-105" type="line"/>
      <point x="667" y="79"/>
      <point x="590" y="209"/>
      <point x="546" y="293" type="curve"/>
      <point x="605" y="411"/>
      <point x="674" y="551"/>
      <point x="761" y="747" type="curve"/>
      <point x="740" y="757" type="line"/>
      <point x="594" y="551"/>
      <point x="437" y="366"/>
      <point x="354" y="281" type="curve"/>
      <point x="442" y="201"/>
      <point x="563" y="94"/>
    </contour>
    <contour>
      <point x="271" y="-112" type="curve"/>
      <point x="297" y="-112" type="line"/>
      <point x="311" y="380"/>
      <point x="334" y="569"/>
      <point x="380" y="735" type="curve"/>
      <point x="342" y="728"/>
      <point x="305" y="724"/>
      <point x="269" y="724" type="curve" smooth="yes"/>
      <point x="233" y="724"/>
      <point x="198" y="728"/>
      <point x="164" y="735" type="curve"/>
      <point x="219" y="538"/>
      <point x="237" y="406"/>
    </contour>
    <contour>
      <point x="698" y="83" type="curve"/>
      <point x="757" y="124"/>
      <point x="847" y="159"/>
      <point x="1030" y="192" type="curve"/>
      <point x="1030" y="215" type="line"/>
      <point x="858" y="232"/>
      <point x="749" y="263"/>
      <point x="693" y="298" type="curve"/>
      <point x="700" y="255"/>
      <point x="703" y="215"/>
      <point x="703" y="177" type="curve" smooth="yes"/>
      <point x="703" y="145"/>
      <point x="701" y="114"/>
    </contour>
    <contour>
      <point x="698" y="322" type="curve"/>
      <point x="757" y="363"/>
      <point x="847" y="398"/>
      <point x="1030" y="431" type="curve"/>
      <point x="1030" y="454" type="line"/>
      <point x="858" y="471"/>
      <point x="749" y="502"/>
      <point x="693" y="538" type="curve"/>
      <point x="700" y="494"/>
      <point x="703" y="455"/>
      <point x="703" y="417" type="curve" smooth="yes"/>
      <point x="703" y="385"/>
      <point x="701" y="354"/>
    </contour>
  </outline>
</glyph>
<glyph name="uni103B8" format="2">
  <advance width="1237"/>
  <unicode hex="103B8"/>
  <outline>
    <contour>
      <point x="926" y="-120" type="curve"/>
      <point x="947" y="-105" type="line"/>
      <point x="831" y="79"/>
      <point x="754" y="209"/>
      <point x="710" y="293" type="curve"/>
      <point x="769" y="411"/>
      <point x="838" y="551"/>
      <point x="925" y="747" type="curve"/>
      <point x="904" y="757" type="line"/>
      <point x="765" y="562"/>
      <point x="618" y="386"/>
      <point x="532" y="296" type="curve"/>
      <point x="409" y="316"/>
      <point x="329" y="349"/>
      <point x="286" y="379" type="curve"/>
      <point x="295" y="337"/>
      <point x="298" y="298"/>
      <point x="298" y="260" type="curve" smooth="yes"/>
      <point x="298" y="227"/>
      <point x="295" y="195"/>
      <point x="292" y="163" type="curve"/>
      <point x="334" y="199"/>
      <point x="398" y="238"/>
      <point x="529" y="270" type="curve"/>
      <point x="616" y="191"/>
      <point x="735" y="85"/>
    </contour>
    <contour>
      <point x="184" y="-68" type="curve"/>
      <point x="266" y="-28"/>
      <point x="413" y="8"/>
      <point x="667" y="41" type="curve"/>
      <point x="667" y="64" type="line"/>
      <point x="429" y="80"/>
      <point x="257" y="115"/>
      <point x="177" y="148" type="curve"/>
      <point x="186" y="104"/>
      <point x="189" y="63"/>
      <point x="189" y="25" type="curve" smooth="yes"/>
      <point x="189" y="-7"/>
      <point x="187" y="-38"/>
    </contour>
    <contour>
      <point x="175" y="389" type="curve"/>
      <point x="262" y="430"/>
      <point x="405" y="465"/>
      <point x="660" y="499" type="curve"/>
      <point x="660" y="521" type="line"/>
      <point x="422" y="538"/>
      <point x="250" y="571"/>
      <point x="171" y="605" type="curve"/>
      <point x="180" y="565"/>
      <point x="184" y="528"/>
      <point x="184" y="493" type="curve" smooth="yes"/>
      <point x="184" y="457"/>
      <point x="180" y="423"/>
    </contour>
    <contour>
      <point x="830" y="185" type="curve"/>
      <point x="878" y="223"/>
      <point x="951" y="263"/>
      <point x="1100" y="296" type="curve"/>
      <point x="1100" y="317" type="line"/>
      <point x="961" y="336"/>
      <point x="871" y="370"/>
      <point x="826" y="401" type="curve"/>
      <point x="835" y="362"/>
      <point x="838" y="325"/>
      <point x="838" y="289" type="curve" smooth="yes"/>
      <point x="838" y="254"/>
      <point x="835" y="220"/>
    </contour>
  </outline>
</glyph>
<glyph name="uni103B9" format="2">
  <advance width="1131"/>
  <unicode hex="103B9"/>
  <outline>
    <contour>
      <point x="762" y="-120" type="curve"/>
      <point x="783" y="-105" type="line"/>
      <point x="667" y="79"/>
      <point x="591" y="209"/>
      <point x="546" y="293" type="curve"/>
      <point x="605" y="411"/>
      <point x="674" y="551"/>
      <point x="761" y="747" type="curve"/>
      <point x="740" y="757" type="line"/>
      <point x="595" y="551"/>
      <point x="437" y="366"/>
      <point x="354" y="281" type="curve"/>
      <point x="442" y="201"/>
      <point x="563" y="94"/>
    </contour>
    <contour>
      <point x="271" y="-112" type="curve"/>
      <point x="297" y="-112" type="line"/>
      <point x="311" y="380"/>
      <point x="335" y="569"/>
      <point x="380" y="735" type="curve"/>
      <point x="343" y="728"/>
      <point x="306" y="724"/>
      <point x="269" y="724" type="curve" smooth="yes"/>
      <point x="233" y="724"/>
      <point x="198" y="728"/>
      <point x="164" y="735" type="curve"/>
      <point x="219" y="538"/>
      <point x="237" y="406"/>
    </contour>
    <contour>
      <point x="671" y="206" type="curve"/>
      <point x="730" y="246"/>
      <point x="819" y="283"/>
      <point x="1003" y="315" type="curve"/>
      <point x="1003" y="339" type="line"/>
      <point x="831" y="354"/>
      <point x="722" y="387"/>
      <point x="666" y="422" type="curve"/>
      <point x="673" y="379"/>
      <point x="675" y="340"/>
      <point x="675" y="303" type="curve" smooth="yes"/>
      <point x="675" y="270"/>
      <point x="673" y="238"/>
    </contour>
  </outline>
</glyph>
<glyph name="uni103BA" format="2">
  <advance width="1337"/>
  <unicode hex="103BA"/>
  <outline>
    <contour>
      <point x="486" y="-112" type="curve"/>
      <point x="512" y="-112" type="line"/>
      <point x="526" y="381"/>
      <point x="550" y="569"/>
      <point x="595" y="736" type="curve"/>
      <point x="558" y="728"/>
      <point x="521" y="724"/>
      <point x="484" y="724" type="curve" smooth="yes"/>
      <point x="448" y="724"/>
      <point x="413" y="728"/>
      <point x="379" y="736" type="curve"/>
      <point x="434" y="538"/>
      <point x="452" y="407"/>
    </contour>
    <contour>
      <point x="140" y="186" type="curve"/>
      <point x="188" y="224"/>
      <point x="264" y="259"/>
      <point x="410" y="296" type="curve"/>
      <point x="410" y="317" type="line"/>
      <point x="271" y="341"/>
      <point x="183" y="370"/>
      <point x="136" y="402" type="curve"/>
      <point x="144" y="363"/>
      <point x="147" y="327"/>
      <point x="147" y="292" type="curve" smooth="yes"/>
      <point x="147" y="256"/>
      <point x="144" y="221"/>
    </contour>
    <contour>
      <point x="635" y="-33" type="curve"/>
      <point x="717" y="9"/>
      <point x="851" y="44"/>
      <point x="1107" y="77" type="curve"/>
      <point x="1107" y="100" type="line"/>
      <point x="868" y="117"/>
      <point x="709" y="151"/>
      <point x="630" y="183" type="curve"/>
      <point x="638" y="141"/>
      <point x="642" y="103"/>
      <point x="642" y="66" type="curve" smooth="yes"/>
      <point x="642" y="33"/>
      <point x="639" y="0"/>
    </contour>
    <contour>
      <point x="764" y="200" type="curve"/>
      <point x="845" y="240"/>
      <point x="960" y="276"/>
      <point x="1201" y="309" type="curve"/>
      <point x="1201" y="333" type="line"/>
      <point x="977" y="348"/>
      <point x="836" y="382"/>
      <point x="760" y="416" type="curve"/>
      <point x="768" y="375"/>
      <point x="771" y="337"/>
      <point x="771" y="301" type="curve" smooth="yes"/>
      <point x="771" y="266"/>
      <point x="768" y="233"/>
    </contour>
    <contour>
      <point x="628" y="425" type="curve"/>
      <point x="713" y="465"/>
      <point x="843" y="502"/>
      <point x="1098" y="534" type="curve"/>
      <point x="1098" y="558" type="line"/>
      <point x="862" y="573"/>
      <point x="703" y="608"/>
      <point x="624" y="641" type="curve"/>
      <point x="633" y="601"/>
      <point x="636" y="564"/>
      <point x="636" y="528" type="curve" smooth="yes"/>
      <point x="636" y="493"/>
      <point x="633" y="459"/>
    </contour>
  </outline>
</glyph>
<glyph name="uni103BB" format="2">
  <advance width="1081"/>
  <unicode hex="103BB"/>
  <outline>
    <contour>
      <point x="549" y="314" type="curve"/>
      <point x="572" y="314" type="line"/>
      <point x="575" y="358"/>
      <point x="579" y="399"/>
      <point x="584" y="437" type="curve"/>
      <point x="677" y="446"/>
      <point x="791" y="454"/>
      <point x="940" y="465" type="curve"/>
      <point x="940" y="491" type="line"/>
      <point x="801" y="496"/>
      <point x="688" y="501"/>
      <point x="593" y="508" type="curve"/>
      <point x="611" y="623"/>
      <point x="633" y="704"/>
      <point x="655" y="755" type="curve"/>
      <point x="615" y="747"/>
      <point x="579" y="743"/>
      <point x="543" y="743" type="curve" smooth="yes"/>
      <point x="508" y="743"/>
      <point x="475" y="747"/>
      <point x="440" y="751" type="curve"/>
      <point x="467" y="696"/>
      <point x="492" y="627"/>
      <point x="515" y="514" type="curve"/>
      <point x="347" y="528"/>
      <point x="244" y="547"/>
      <point x="150" y="574" type="curve"/>
      <point x="159" y="537"/>
      <point x="163" y="500"/>
      <point x="163" y="464" type="curve" smooth="yes"/>
      <point x="163" y="429"/>
      <point x="159" y="394"/>
      <point x="150" y="360" type="curve"/>
      <point x="266" y="394"/>
      <point x="358" y="413"/>
      <point x="531" y="431" type="curve"/>
      <point x="537" y="396"/>
      <point x="543" y="357"/>
    </contour>
    <contour>
      <point x="395" y="-137" type="curve"/>
      <point x="419" y="-137" type="line"/>
      <point x="436" y="102"/>
      <point x="470" y="261"/>
      <point x="502" y="340" type="curve"/>
      <point x="459" y="332"/>
      <point x="420" y="329"/>
      <point x="383" y="329" type="curve" smooth="yes"/>
      <point x="350" y="329"/>
      <point x="318" y="331"/>
      <point x="286" y="335" type="curve"/>
      <point x="328" y="253"/>
      <point x="363" y="119"/>
    </contour>
    <contour>
      <point x="731" y="-128" type="curve"/>
      <point x="754" y="-128" type="line"/>
      <point x="770" y="109"/>
      <point x="804" y="267"/>
      <point x="837" y="347" type="curve"/>
      <point x="798" y="338"/>
      <point x="763" y="334"/>
      <point x="728" y="334" type="curve" smooth="yes"/>
      <point x="692" y="334"/>
      <point x="657" y="338"/>
      <point x="622" y="343" type="curve"/>
      <point x="662" y="257"/>
      <point x="698" y="127"/>
    </contour>
  </outline>
</glyph>
<glyph name="uni103BC" format="2">
  <advance width="1029"/>
  <unicode hex="103BC"/>
  <outline>
    <contour>
      <point x="756" y="-112" type="curve"/>
      <point x="782" y="-112" type="line"/>
      <point x="796" y="381"/>
      <point x="819" y="569"/>
      <point x="865" y="736" type="curve"/>
      <point x="827" y="728"/>
      <point x="790" y="724"/>
      <point x="754" y="724" type="curve" smooth="yes"/>
      <point x="718" y="724"/>
      <point x="683" y="728"/>
      <point x="649" y="736" type="curve"/>
      <point x="704" y="538"/>
      <point x="721" y="407"/>
    </contour>
    <contour>
      <point x="218" y="-46" type="curve"/>
      <point x="304" y="-5"/>
      <point x="434" y="30"/>
      <point x="689" y="64" type="curve"/>
      <point x="689" y="87" type="line"/>
      <point x="452" y="103"/>
      <point x="293" y="136"/>
      <point x="214" y="170" type="curve"/>
      <point x="223" y="131"/>
      <point x="226" y="94"/>
      <point x="226" y="59" type="curve" smooth="yes"/>
      <point x="226" y="23"/>
      <point x="223" y="-11"/>
    </contour>
    <contour>
      <point x="288" y="206" type="curve"/>
      <point x="352" y="247"/>
      <point x="469" y="282"/>
      <point x="669" y="315" type="curve"/>
      <point x="669" y="338" type="line"/>
      <point x="482" y="354"/>
      <point x="343" y="388"/>
      <point x="284" y="421" type="curve"/>
      <point x="293" y="381"/>
      <point x="296" y="345"/>
      <point x="296" y="311" type="curve" smooth="yes"/>
      <point x="296" y="275"/>
      <point x="293" y="241"/>
    </contour>
    <contour>
      <point x="168" y="447" type="curve"/>
      <point x="254" y="487"/>
      <point x="384" y="524"/>
      <point x="639" y="556" type="curve"/>
      <point x="639" y="580" type="line"/>
      <point x="402" y="595"/>
      <point x="243" y="629"/>
      <point x="164" y="663" type="curve"/>
      <point x="173" y="623"/>
      <point x="176" y="587"/>
      <point x="176" y="552" type="curve" smooth="yes"/>
      <point x="176" y="516"/>
      <point x="173" y="482"/>
    </contour>
  </outline>
</glyph>
<glyph name="uni103BD" format="2">
  <advance width="1269"/>
  <unicode hex="103BD"/>
  <outline>
    <contour>
      <point x="878" y="-120" type="curve"/>
      <point x="899" y="-105" type="line"/>
      <point x="784" y="79"/>
      <point x="706" y="209"/>
      <point x="662" y="293" type="curve"/>
      <point x="721" y="411"/>
      <point x="790" y="551"/>
      <point x="877" y="747" type="curve"/>
      <point x="856" y="757" type="line"/>
      <point x="716" y="560"/>
      <point x="567" y="383"/>
      <point x="482" y="293" type="curve"/>
      <point x="307" y="312"/>
      <point x="195" y="345"/>
      <point x="137" y="376" type="curve"/>
      <point x="148" y="337"/>
      <point x="152" y="300"/>
      <point x="152" y="264" type="curve" smooth="yes"/>
      <point x="152" y="229"/>
      <point x="148" y="195"/>
      <point x="142" y="161" type="curve"/>
      <point x="204" y="197"/>
      <point x="295" y="237"/>
      <point x="483" y="269" type="curve"/>
      <point x="570" y="190"/>
      <point x="688" y="83"/>
    </contour>
    <contour>
      <point x="1141" y="-120" type="curve"/>
      <point x="1160" y="-105" type="line"/>
      <point x="1046" y="79"/>
      <point x="968" y="209"/>
      <point x="925" y="293" type="curve"/>
      <point x="983" y="411"/>
      <point x="1051" y="551"/>
      <point x="1139" y="747" type="curve"/>
      <point x="1118" y="757" type="line"/>
      <point x="973" y="551"/>
      <point x="816" y="366"/>
      <point x="732" y="281" type="curve"/>
      <point x="821" y="201"/>
      <point x="940" y="94"/>
    </contour>
  </outline>
</glyph>
<glyph name="uni103BE" format="2">
  <advance width="1089"/>
  <unicode hex="103BE"/>
  <outline>
    <contour>
      <point x="816" y="-112" type="curve"/>
      <point x="842" y="-112" type="line"/>
      <point x="856" y="381"/>
      <point x="880" y="569"/>
      <point x="925" y="736" type="curve"/>
      <point x="888" y="728"/>
      <point x="851" y="724"/>
      <point x="814" y="724" type="curve" smooth="yes"/>
      <point x="778" y="724"/>
      <point x="743" y="728"/>
      <point x="709" y="736" type="curve"/>
      <point x="764" y="538"/>
      <point x="782" y="407"/>
    </contour>
    <contour>
      <point x="283" y="-30" type="curve"/>
      <point x="364" y="12"/>
      <point x="481" y="47"/>
      <point x="720" y="79" type="curve"/>
      <point x="720" y="103" type="line"/>
      <point x="496" y="120"/>
      <point x="355" y="153"/>
      <point x="279" y="186" type="curve"/>
      <point x="288" y="145"/>
      <point x="291" y="107"/>
      <point x="291" y="72" type="curve" smooth="yes"/>
      <point x="291" y="37"/>
      <point x="288" y="4"/>
    </contour>
    <contour>
      <point x="147" y="196" type="curve"/>
      <point x="234" y="237"/>
      <point x="362" y="272"/>
      <point x="618" y="305" type="curve"/>
      <point x="618" y="328" type="line"/>
      <point x="381" y="344"/>
      <point x="222" y="378"/>
      <point x="143" y="411" type="curve"/>
      <point x="152" y="371"/>
      <point x="156" y="334"/>
      <point x="156" y="299" type="curve" smooth="yes"/>
      <point x="156" y="264"/>
      <point x="152" y="230"/>
    </contour>
    <contour>
      <point x="283" y="428" type="curve"/>
      <point x="364" y="469"/>
      <point x="481" y="504"/>
      <point x="720" y="537" type="curve"/>
      <point x="720" y="560" type="line"/>
      <point x="496" y="576"/>
      <point x="355" y="611"/>
      <point x="279" y="643" type="curve"/>
      <point x="288" y="602"/>
      <point x="291" y="565"/>
      <point x="291" y="529" type="curve" smooth="yes"/>
      <point x="291" y="495"/>
      <point x="288" y="462"/>
    </contour>
  </outline>
</glyph>
<glyph name="uni103BF" format="2">
  <advance width="1122"/>
  <unicode hex="103BF"/>
  <outline>
    <contour>
      <point x="271" y="-112" type="curve"/>
      <point x="297" y="-112" type="line"/>
      <point x="311" y="381"/>
      <point x="334" y="569"/>
      <point x="380" y="736" type="curve"/>
      <point x="343" y="728"/>
      <point x="306" y="724"/>
      <point x="269" y="724" type="curve" smooth="yes"/>
      <point x="233" y="724"/>
      <point x="198" y="728"/>
      <point x="164" y="736" type="curve"/>
      <point x="219" y="538"/>
      <point x="237" y="407"/>
    </contour>
    <contour>
      <point x="420" y="-33" type="curve"/>
      <point x="502" y="9"/>
      <point x="636" y="44"/>
      <point x="892" y="77" type="curve"/>
      <point x="892" y="100" type="line"/>
      <point x="653" y="117"/>
      <point x="494" y="151"/>
      <point x="415" y="183" type="curve"/>
      <point x="423" y="141"/>
      <point x="427" y="103"/>
      <point x="427" y="66" type="curve" smooth="yes"/>
      <point x="427" y="33"/>
      <point x="424" y="0"/>
    </contour>
    <contour>
      <point x="549" y="200" type="curve"/>
      <point x="630" y="240"/>
      <point x="745" y="276"/>
      <point x="986" y="309" type="curve"/>
      <point x="986" y="333" type="line"/>
      <point x="762" y="348"/>
      <point x="620" y="382"/>
      <point x="545" y="416" type="curve"/>
      <point x="554" y="376"/>
      <point x="557" y="339"/>
      <point x="557" y="303" type="curve" smooth="yes"/>
      <point x="557" y="268"/>
      <point x="554" y="234"/>
    </contour>
    <contour>
      <point x="412" y="425" type="curve"/>
      <point x="498" y="465"/>
      <point x="628" y="502"/>
      <point x="883" y="534" type="curve"/>
      <point x="883" y="558" type="line"/>
      <point x="646" y="573"/>
      <point x="488" y="608"/>
      <point x="409" y="641" type="curve"/>
      <point x="418" y="602"/>
      <point x="421" y="566"/>
      <point x="421" y="532" type="curve" smooth="yes"/>
      <point x="421" y="495"/>
      <point x="417" y="460"/>
    </contour>
  </outline>
</glyph>
<glyph name="uni103C0" format="2">
  <advance width="1255"/>
  <unicode hex="103C0"/>
  <outline>
    <contour>
      <point x="982" y="-112" type="curve"/>
      <point x="1008" y="-112" type="line"/>
      <point x="1022" y="381"/>
      <point x="1045" y="569"/>
      <point x="1091" y="736" type="curve"/>
      <point x="1054" y="728"/>
      <point x="1017" y="724"/>
      <point x="981" y="724" type="curve" smooth="yes"/>
      <point x="945" y="724"/>
      <point x="910" y="728"/>
      <point x="875" y="736" type="curve"/>
      <point x="930" y="538"/>
      <point x="948" y="407"/>
    </contour>
    <contour>
      <point x="271" y="-112" type="curve"/>
      <point x="297" y="-112" type="line"/>
      <point x="311" y="381"/>
      <point x="334" y="569"/>
      <point x="380" y="736" type="curve"/>
      <point x="342" y="728"/>
      <point x="305" y="724"/>
      <point x="269" y="724" type="curve" smooth="yes"/>
      <point x="233" y="724"/>
      <point x="198" y="728"/>
      <point x="164" y="736" type="curve"/>
      <point x="219" y="538"/>
      <point x="237" y="407"/>
    </contour>
    <contour>
      <point x="380" y="214" type="curve"/>
      <point x="427" y="251"/>
      <point x="496" y="290"/>
      <point x="640" y="323" type="curve"/>
      <point x="640" y="289"/>
      <point x="637" y="256"/>
      <point x="633" y="224" type="curve"/>
      <point x="681" y="260"/>
      <point x="754" y="300"/>
      <point x="904" y="334" type="curve"/>
      <point x="904" y="354" type="line"/>
      <point x="765" y="373"/>
      <point x="675" y="407"/>
      <point x="629" y="438" type="curve"/>
      <point x="636" y="406"/>
      <point x="639" y="376"/>
      <point x="640" y="347" type="curve"/>
      <point x="506" y="366"/>
      <point x="420" y="399"/>
      <point x="376" y="430" type="curve"/>
      <point x="384" y="391"/>
      <point x="387" y="354"/>
      <point x="387" y="318" type="curve" smooth="yes"/>
      <point x="387" y="283"/>
      <point x="384" y="249"/>
    </contour>
  </outline>
</glyph>
<glyph name="uni103C1" format="2">
  <advance width="1139"/>
  <unicode hex="103C1"/>
  <outline>
    <contour>
      <point x="899" y="-128" type="curve"/>
      <point x="917" y="-109" type="line"/>
      <point x="801" y="27"/>
      <point x="722" y="123"/>
      <point x="679" y="186" type="curve"/>
      <point x="738" y="273"/>
      <point x="808" y="376"/>
      <point x="895" y="520" type="curve"/>
      <point x="877" y="535" type="line"/>
      <point x="731" y="378"/>
      <point x="562" y="239"/>
      <point x="478" y="177" type="curve"/>
      <point x="567" y="118"/>
      <point x="700" y="35"/>
    </contour>
    <contour>
      <point x="582" y="-128" type="curve"/>
      <point x="598" y="-109" type="line"/>
      <point x="484" y="27"/>
      <point x="406" y="123"/>
      <point x="362" y="186" type="curve"/>
      <point x="420" y="273"/>
      <point x="491" y="376"/>
      <point x="578" y="520" type="curve"/>
      <point x="558" y="535" type="line"/>
      <point x="414" y="378"/>
      <point x="245" y="239"/>
      <point x="162" y="177" type="curve"/>
      <point x="250" y="118"/>
      <point x="383" y="35"/>
    </contour>
    <contour>
      <point x="155" y="528" type="curve"/>
      <point x="353" y="582"/>
      <point x="484" y="599"/>
      <point x="1003" y="634" type="curve"/>
      <point x="1003" y="660" type="line"/>
      <point x="510" y="675"/>
      <point x="322" y="698"/>
      <point x="155" y="743" type="curve"/>
      <point x="163" y="706"/>
      <point x="167" y="669"/>
      <point x="167" y="633" type="curve" smooth="yes"/>
      <point x="167" y="597"/>
      <point x="163" y="562"/>
    </contour>
  </outline>
</glyph>
<glyph name="uni103C2" format="2">
  <advance width="867"/>
  <unicode hex="103C2"/>
  <outline>
    <contour>
      <point x="181" y="324" type="curve"/>
      <point x="272" y="366"/>
      <point x="426" y="401"/>
      <point x="701" y="433" type="curve"/>
      <point x="701" y="457" type="line"/>
      <point x="445" y="474"/>
      <point x="261" y="507"/>
      <point x="174" y="540" type="curve"/>
      <point x="185" y="497"/>
      <point x="188" y="459"/>
      <point x="188" y="422" type="curve" smooth="yes"/>
      <point x="188" y="389"/>
      <point x="185" y="357"/>
    </contour>
    <contour>
      <point x="319" y="-107" type="curve"/>
      <point x="345" y="-107" type="line"/>
      <point x="359" y="124"/>
      <point x="386" y="231"/>
      <point x="428" y="312" type="curve"/>
      <point x="391" y="307"/>
      <point x="357" y="306"/>
      <point x="324" y="306" type="curve" smooth="yes"/>
      <point x="286" y="306"/>
      <point x="249" y="308"/>
      <point x="212" y="312" type="curve"/>
      <point x="263" y="214"/>
      <point x="283" y="136"/>
    </contour>
    <contour>
      <point x="566" y="-107" type="curve"/>
      <point x="592" y="-107" type="line"/>
      <point x="606" y="124"/>
      <point x="633" y="231"/>
      <point x="675" y="312" type="curve"/>
      <point x="638" y="307"/>
      <point x="604" y="306"/>
      <point x="571" y="306" type="curve" smooth="yes"/>
      <point x="533" y="306"/>
      <point x="496" y="308"/>
      <point x="459" y="312" type="curve"/>
      <point x="510" y="214"/>
      <point x="530" y="136"/>
    </contour>
    <contour>
      <point x="181" y="565" type="curve"/>
      <point x="272" y="606"/>
      <point x="426" y="641"/>
      <point x="701" y="674" type="curve"/>
      <point x="701" y="697" type="line"/>
      <point x="445" y="714"/>
      <point x="261" y="748"/>
      <point x="174" y="780" type="curve"/>
      <point x="185" y="738"/>
      <point x="188" y="700"/>
      <point x="188" y="663" type="curve" smooth="yes"/>
      <point x="188" y="630"/>
      <point x="185" y="598"/>
    </contour>
  </outline>
</glyph>
<glyph name="uni103C3" format="2">
  <advance width="1289"/>
  <unicode hex="103C3"/>
  <outline>
    <contour>
      <point x="530" y="-120" type="curve"/>
      <point x="551" y="-105" type="line"/>
      <point x="436" y="79"/>
      <point x="358" y="209"/>
      <point x="316" y="293" type="curve"/>
      <point x="374" y="411"/>
      <point x="442" y="551"/>
      <point x="529" y="747" type="curve"/>
      <point x="509" y="757" type="line"/>
      <point x="362" y="551"/>
      <point x="206" y="366"/>
      <point x="122" y="281" type="curve"/>
      <point x="212" y="201"/>
      <point x="331" y="94"/>
    </contour>
    <contour>
      <point x="520" y="24" type="curve"/>
      <point x="568" y="62"/>
      <point x="639" y="102"/>
      <point x="790" y="135" type="curve"/>
      <point x="790" y="155" type="line"/>
      <point x="651" y="175"/>
      <point x="563" y="209"/>
      <point x="516" y="240" type="curve"/>
      <point x="524" y="201"/>
      <point x="526" y="164"/>
      <point x="526" y="128" type="curve" smooth="yes"/>
      <point x="526" y="93"/>
      <point x="524" y="59"/>
    </contour>
    <contour>
      <point x="520" y="333" type="curve"/>
      <point x="568" y="370"/>
      <point x="639" y="410"/>
      <point x="790" y="444" type="curve"/>
      <point x="790" y="463" type="line"/>
      <point x="651" y="483"/>
      <point x="563" y="517"/>
      <point x="516" y="548" type="curve"/>
      <point x="524" y="509"/>
      <point x="526" y="472"/>
      <point x="526" y="437" type="curve" smooth="yes"/>
      <point x="526" y="401"/>
      <point x="524" y="367"/>
    </contour>
    <contour>
      <point x="1162" y="-120" type="curve"/>
      <point x="1180" y="-105" type="line"/>
      <point x="1066" y="79"/>
      <point x="989" y="209"/>
      <point x="946" y="293" type="curve"/>
      <point x="1005" y="411"/>
      <point x="1072" y="551"/>
      <point x="1159" y="747" type="curve"/>
      <point x="1138" y="757" type="line"/>
      <point x="993" y="551"/>
      <point x="837" y="366"/>
      <point x="754" y="281" type="curve"/>
      <point x="842" y="201"/>
      <point x="962" y="94"/>
    </contour>
  </outline>
</glyph>
<glyph name="uni103C8" format="2">
  <advance width="1474"/>
  <unicode hex="103C8"/>
  <outline>
    <contour>
      <point x="1344" y="-120" type="curve"/>
      <point x="1365" y="-105" type="line"/>
      <point x="1250" y="79"/>
      <point x="1172" y="209"/>
      <point x="1128" y="293" type="curve"/>
      <point x="1187" y="411"/>
      <point x="1256" y="551"/>
      <point x="1343" y="747" type="curve"/>
      <point x="1322" y="757" type="line"/>
      <point x="1176" y="551"/>
      <point x="1019" y="366"/>
      <point x="936" y="281" type="curve"/>
      <point x="1025" y="201"/>
      <point x="1145" y="94"/>
    </contour>
    <contour>
      <point x="157" y="21" type="curve"/>
      <point x="203" y="58"/>
      <point x="274" y="95"/>
      <point x="417" y="127" type="curve"/>
      <point x="417" y="93"/>
      <point x="415" y="60"/>
      <point x="413" y="27" type="curve"/>
      <point x="472" y="68"/>
      <point x="576" y="103"/>
      <point x="759" y="136" type="curve"/>
      <point x="759" y="159" type="line"/>
      <point x="589" y="176"/>
      <point x="465" y="207"/>
      <point x="409" y="242" type="curve"/>
      <point x="414" y="210"/>
      <point x="416" y="180"/>
      <point x="417" y="151" type="curve"/>
      <point x="283" y="172"/>
      <point x="198" y="206"/>
      <point x="153" y="237" type="curve"/>
      <point x="161" y="198"/>
      <point x="164" y="161"/>
      <point x="164" y="125" type="curve" smooth="yes"/>
      <point x="164" y="90"/>
      <point x="161" y="56"/>
    </contour>
    <contour>
      <point x="157" y="375" type="curve"/>
      <point x="203" y="410"/>
      <point x="274" y="448"/>
      <point x="417" y="481" type="curve"/>
      <point x="417" y="446"/>
      <point x="415" y="413"/>
      <point x="413" y="380" type="curve"/>
      <point x="472" y="422"/>
      <point x="576" y="457"/>
      <point x="759" y="489" type="curve"/>
      <point x="759" y="513" type="line"/>
      <point x="589" y="530"/>
      <point x="465" y="561"/>
      <point x="409" y="596" type="curve"/>
      <point x="414" y="564"/>
      <point x="416" y="534"/>
      <point x="417" y="505" type="curve"/>
      <point x="283" y="525"/>
      <point x="198" y="560"/>
      <point x="153" y="591" type="curve"/>
      <point x="161" y="552"/>
      <point x="164" y="515"/>
      <point x="164" y="479" type="curve" smooth="yes"/>
      <point x="164" y="444"/>
      <point x="161" y="410"/>
    </contour>
    <contour>
      <point x="853" y="-112" type="curve"/>
      <point x="879" y="-112" type="line"/>
      <point x="894" y="380"/>
      <point x="918" y="569"/>
      <point x="962" y="735" type="curve"/>
      <point x="924" y="728"/>
      <point x="887" y="724"/>
      <point x="851" y="724" type="curve" smooth="yes"/>
      <point x="816" y="724"/>
      <point x="781" y="728"/>
      <point x="746" y="735" type="curve"/>
      <point x="801" y="538"/>
      <point x="819" y="406"/>
    </contour>
  </outline>
</glyph>
<glyph name="uni103C9" format="2">
  <advance width="1378"/>
  <unicode hex="103C9"/>
  <outline>
    <contour>
      <point x="157" y="308" type="curve"/>
      <point x="202" y="342"/>
      <point x="273" y="378"/>
      <point x="416" y="409" type="curve"/>
      <point x="416" y="374"/>
      <point x="413" y="341"/>
      <point x="410" y="308" type="curve"/>
      <point x="457" y="342"/>
      <point x="526" y="378"/>
      <point x="671" y="410" type="curve"/>
      <point x="671" y="376"/>
      <point x="669" y="344"/>
      <point x="666" y="313" type="curve"/>
      <point x="726" y="352"/>
      <point x="828" y="387"/>
      <point x="1012" y="419" type="curve"/>
      <point x="1012" y="442" type="line"/>
      <point x="841" y="456"/>
      <point x="718" y="488"/>
      <point x="662" y="521" type="curve"/>
      <point x="667" y="490"/>
      <point x="670" y="461"/>
      <point x="671" y="433" type="curve"/>
      <point x="537" y="453"/>
      <point x="452" y="486"/>
      <point x="406" y="516" type="curve"/>
      <point x="411" y="487"/>
      <point x="414" y="460"/>
      <point x="415" y="434" type="curve"/>
      <point x="283" y="453"/>
      <point x="197" y="487"/>
      <point x="154" y="516" type="curve"/>
      <point x="161" y="478"/>
      <point x="164" y="443"/>
      <point x="164" y="410" type="curve" smooth="yes"/>
      <point x="164" y="375"/>
      <point x="161" y="341"/>
    </contour>
    <contour>
      <point x="410" y="-142" type="curve"/>
      <point x="457" y="-107"/>
      <point x="526" y="-70"/>
      <point x="671" y="-40" type="curve"/>
      <point x="671" y="-73"/>
      <point x="669" y="-104"/>
      <point x="666" y="-136" type="curve"/>
      <point x="726" y="-96"/>
      <point x="828" y="-62"/>
      <point x="1012" y="-31" type="curve"/>
      <point x="1012" y="-8" type="line"/>
      <point x="841" y="8"/>
      <point x="718" y="39"/>
      <point x="662" y="73" type="curve"/>
      <point x="667" y="41"/>
      <point x="670" y="12"/>
      <point x="671" y="-16" type="curve"/>
      <point x="537" y="1"/>
      <point x="452" y="38"/>
      <point x="406" y="68" type="curve"/>
      <point x="414" y="30"/>
      <point x="416" y="-6"/>
      <point x="416" y="-41" type="curve" smooth="yes"/>
      <point x="416" y="-75"/>
      <point x="414" y="-109"/>
    </contour>
    <contour>
      <point x="157" y="83" type="curve"/>
      <point x="203" y="119"/>
      <point x="273" y="154"/>
      <point x="416" y="184" type="curve"/>
      <point x="416" y="150"/>
      <point x="413" y="117"/>
      <point x="410" y="83" type="curve"/>
      <point x="457" y="119"/>
      <point x="526" y="154"/>
      <point x="671" y="185" type="curve"/>
      <point x="671" y="152"/>
      <point x="669" y="120"/>
      <point x="666" y="88" type="curve"/>
      <point x="726" y="127"/>
      <point x="828" y="163"/>
      <point x="1012" y="194" type="curve"/>
      <point x="1012" y="216" type="line"/>
      <point x="841" y="233"/>
      <point x="718" y="263"/>
      <point x="662" y="296" type="curve"/>
      <point x="667" y="265"/>
      <point x="670" y="236"/>
      <point x="671" y="208" type="curve"/>
      <point x="537" y="228"/>
      <point x="452" y="261"/>
      <point x="406" y="291" type="curve"/>
      <point x="411" y="262"/>
      <point x="415" y="235"/>
      <point x="416" y="209" type="curve"/>
      <point x="284" y="228"/>
      <point x="197" y="262"/>
      <point x="154" y="291" type="curve"/>
      <point x="161" y="254"/>
      <point x="164" y="219"/>
      <point x="164" y="186" type="curve" smooth="yes"/>
      <point x="164" y="151"/>
      <point x="161" y="117"/>
    </contour>
    <contour>
      <point x="410" y="534" type="curve"/>
      <point x="457" y="568"/>
      <point x="526" y="605"/>
      <point x="671" y="636" type="curve"/>
      <point x="671" y="603"/>
      <point x="669" y="571"/>
      <point x="666" y="538" type="curve"/>
      <point x="726" y="580"/>
      <point x="828" y="614"/>
      <point x="1012" y="645" type="curve"/>
      <point x="1012" y="667" type="line"/>
      <point x="841" y="683"/>
      <point x="718" y="712"/>
      <point x="662" y="748" type="curve"/>
      <point x="667" y="716"/>
      <point x="670" y="687"/>
      <point x="671" y="659" type="curve"/>
      <point x="537" y="678"/>
      <point x="452" y="711"/>
      <point x="406" y="744" type="curve"/>
      <point x="414" y="705"/>
      <point x="416" y="669"/>
      <point x="416" y="634" type="curve" smooth="yes"/>
      <point x="416" y="600"/>
      <point x="414" y="567"/>
    </contour>
    <contour>
      <point x="1105" y="-112" type="curve"/>
      <point x="1131" y="-112" type="line"/>
      <point x="1147" y="381"/>
      <point x="1170" y="569"/>
      <point x="1214" y="736" type="curve"/>
      <point x="1177" y="728"/>
      <point x="1140" y="724"/>
      <point x="1104" y="724" type="curve" smooth="yes"/>
      <point x="1069" y="724"/>
      <point x="1034" y="728"/>
      <point x="1000" y="736" type="curve"/>
      <point x="1054" y="538"/>
      <point x="1071" y="407"/>
    </contour>
  </outline>
</glyph>
<glyph name="uni103CA" format="2">
  <advance width="1724"/>
  <unicode hex="103CA"/>
  <outline>
    <contour>
      <point x="1594" y="-120" type="curve"/>
      <point x="1615" y="-104" type="line"/>
      <point x="1500" y="79"/>
      <point x="1422" y="209"/>
      <point x="1378" y="294" type="curve"/>
      <point x="1438" y="412"/>
      <point x="1505" y="551"/>
      <point x="1592" y="747" type="curve"/>
      <point x="1573" y="758" type="line"/>
      <point x="1426" y="551"/>
      <point x="1269" y="366"/>
      <point x="1186" y="282" type="curve"/>
      <point x="1275" y="201"/>
      <point x="1395" y="95"/>
    </contour>
    <contour>
      <point x="409" y="-142" type="curve"/>
      <point x="457" y="-107"/>
      <point x="526" y="-70"/>
      <point x="671" y="-40" type="curve"/>
      <point x="671" y="-73"/>
      <point x="669" y="-105"/>
      <point x="666" y="-137" type="curve"/>
      <point x="725" y="-96"/>
      <point x="828" y="-63"/>
      <point x="1011" y="-31" type="curve"/>
      <point x="1011" y="-8" type="line"/>
      <point x="841" y="8"/>
      <point x="718" y="39"/>
      <point x="662" y="73" type="curve"/>
      <point x="667" y="41"/>
      <point x="670" y="12"/>
      <point x="671" y="-16" type="curve"/>
      <point x="537" y="1"/>
      <point x="451" y="38"/>
      <point x="406" y="67" type="curve"/>
      <point x="413" y="30"/>
      <point x="416" y="-5"/>
      <point x="416" y="-39" type="curve" smooth="yes"/>
      <point x="416" y="-74"/>
      <point x="413" y="-108"/>
    </contour>
    <contour>
      <point x="157" y="83" type="curve"/>
      <point x="202" y="118"/>
      <point x="273" y="154"/>
      <point x="416" y="184" type="curve"/>
      <point x="416" y="150"/>
      <point x="413" y="116"/>
      <point x="409" y="83" type="curve"/>
      <point x="457" y="118"/>
      <point x="526" y="154"/>
      <point x="671" y="185" type="curve"/>
      <point x="671" y="152"/>
      <point x="669" y="120"/>
      <point x="666" y="88" type="curve"/>
      <point x="725" y="127"/>
      <point x="828" y="162"/>
      <point x="1011" y="194" type="curve"/>
      <point x="1011" y="216" type="line"/>
      <point x="841" y="233"/>
      <point x="718" y="262"/>
      <point x="662" y="296" type="curve"/>
      <point x="667" y="265"/>
      <point x="670" y="236"/>
      <point x="671" y="208" type="curve"/>
      <point x="537" y="228"/>
      <point x="451" y="261"/>
      <point x="406" y="291" type="curve"/>
      <point x="411" y="262"/>
      <point x="414" y="235"/>
      <point x="415" y="209" type="curve"/>
      <point x="283" y="228"/>
      <point x="197" y="262"/>
      <point x="153" y="291" type="curve"/>
      <point x="161" y="253"/>
      <point x="164" y="217"/>
      <point x="164" y="183" type="curve" smooth="yes"/>
      <point x="164" y="149"/>
      <point x="161" y="116"/>
    </contour>
    <contour>
      <point x="157" y="308" type="curve"/>
      <point x="202" y="342"/>
      <point x="273" y="377"/>
      <point x="416" y="409" type="curve"/>
      <point x="416" y="374"/>
      <point x="413" y="341"/>
      <point x="409" y="308" type="curve"/>
      <point x="457" y="342"/>
      <point x="526" y="377"/>
      <point x="671" y="410" type="curve"/>
      <point x="671" y="376"/>
      <point x="669" y="344"/>
      <point x="666" y="313" type="curve"/>
      <point x="725" y="352"/>
      <point x="828" y="387"/>
      <point x="1011" y="418" type="curve"/>
      <point x="1011" y="442" type="line"/>
      <point x="841" y="456"/>
      <point x="718" y="487"/>
      <point x="662" y="521" type="curve"/>
      <point x="667" y="490"/>
      <point x="670" y="460"/>
      <point x="671" y="432" type="curve"/>
      <point x="537" y="452"/>
      <point x="451" y="486"/>
      <point x="406" y="516" type="curve"/>
      <point x="411" y="487"/>
      <point x="415" y="459"/>
      <point x="416" y="433" type="curve"/>
      <point x="284" y="453"/>
      <point x="197" y="487"/>
      <point x="153" y="516" type="curve"/>
      <point x="161" y="478"/>
      <point x="164" y="442"/>
      <point x="164" y="408" type="curve" smooth="yes"/>
      <point x="164" y="373"/>
      <point x="161" y="341"/>
    </contour>
    <contour>
      <point x="409" y="534" type="curve"/>
      <point x="457" y="568"/>
      <point x="526" y="605"/>
      <point x="671" y="636" type="curve"/>
      <point x="671" y="603"/>
      <point x="669" y="571"/>
      <point x="666" y="538" type="curve"/>
      <point x="725" y="580"/>
      <point x="828" y="613"/>
      <point x="1011" y="645" type="curve"/>
      <point x="1011" y="667" type="line"/>
      <point x="841" y="682"/>
      <point x="718" y="712"/>
      <point x="662" y="747" type="curve"/>
      <point x="667" y="716"/>
      <point x="670" y="687"/>
      <point x="671" y="659" type="curve"/>
      <point x="537" y="678"/>
      <point x="451" y="711"/>
      <point x="406" y="743" type="curve"/>
      <point x="413" y="705"/>
      <point x="416" y="670"/>
      <point x="416" y="636" type="curve" smooth="yes"/>
      <point x="416" y="601"/>
      <point x="413" y="567"/>
    </contour>
    <contour>
      <point x="1105" y="-112" type="curve"/>
      <point x="1131" y="-112" type="line"/>
      <point x="1147" y="381"/>
      <point x="1170" y="569"/>
      <point x="1214" y="736" type="curve"/>
      <point x="1177" y="728"/>
      <point x="1140" y="724"/>
      <point x="1104" y="724" type="curve" smooth="yes"/>
      <point x="1069" y="724"/>
      <point x="1034" y="728"/>
      <point x="1000" y="736" type="curve"/>
      <point x="1054" y="538"/>
      <point x="1071" y="407"/>
    </contour>
  </outline>
</glyph>
<glyph name="uni103CB" format="2">
  <advance width="1620"/>
  <unicode hex="103CB"/>
  <outline>
    <contour>
      <point x="1491" y="-120" type="curve"/>
      <point x="1511" y="-105" type="line"/>
      <point x="1396" y="79"/>
      <point x="1318" y="209"/>
      <point x="1275" y="293" type="curve"/>
      <point x="1334" y="411"/>
      <point x="1402" y="551"/>
      <point x="1490" y="747" type="curve"/>
      <point x="1469" y="757" type="line"/>
      <point x="1322" y="551"/>
      <point x="1166" y="366"/>
      <point x="1083" y="281" type="curve"/>
      <point x="1171" y="201"/>
      <point x="1291" y="94"/>
    </contour>
    <contour>
      <point x="147" y="70" type="curve"/>
      <point x="207" y="110"/>
      <point x="297" y="146"/>
      <point x="480" y="179" type="curve"/>
      <point x="480" y="202" type="line"/>
      <point x="308" y="218"/>
      <point x="199" y="250"/>
      <point x="143" y="285" type="curve"/>
      <point x="150" y="243"/>
      <point x="153" y="204"/>
      <point x="153" y="167" type="curve" smooth="yes"/>
      <point x="153" y="134"/>
      <point x="150" y="102"/>
    </contour>
    <contour>
      <point x="147" y="309" type="curve"/>
      <point x="207" y="349"/>
      <point x="297" y="384"/>
      <point x="480" y="418" type="curve"/>
      <point x="480" y="441" type="line"/>
      <point x="308" y="457"/>
      <point x="199" y="488"/>
      <point x="143" y="525" type="curve"/>
      <point x="150" y="482"/>
      <point x="153" y="443"/>
      <point x="153" y="406" type="curve" smooth="yes"/>
      <point x="153" y="373"/>
      <point x="150" y="341"/>
    </contour>
    <contour>
      <point x="862" y="-120" type="curve"/>
      <point x="882" y="-105" type="line"/>
      <point x="767" y="79"/>
      <point x="689" y="209"/>
      <point x="646" y="293" type="curve"/>
      <point x="705" y="411"/>
      <point x="772" y="551"/>
      <point x="859" y="747" type="curve"/>
      <point x="840" y="757" type="line"/>
      <point x="693" y="551"/>
      <point x="537" y="366"/>
      <point x="454" y="281" type="curve"/>
      <point x="542" y="201"/>
      <point x="662" y="94"/>
    </contour>
    <contour>
      <point x="1000" y="-112" type="curve"/>
      <point x="1026" y="-112" type="line"/>
      <point x="1040" y="380"/>
      <point x="1064" y="569"/>
      <point x="1109" y="735" type="curve"/>
      <point x="1072" y="728"/>
      <point x="1035" y="724"/>
      <point x="998" y="724" type="curve" smooth="yes"/>
      <point x="962" y="724"/>
      <point x="927" y="728"/>
      <point x="893" y="735" type="curve"/>
      <point x="948" y="538"/>
      <point x="965" y="406"/>
    </contour>
  </outline>
</glyph>
<glyph name="uni103CC" format="2">
  <advance width="1035"/>
  <unicode hex="103CC"/>
  <outline>
    <contour>
      <point x="762" y="-112" type="curve"/>
      <point x="788" y="-112" type="line"/>
      <point x="802" y="381"/>
      <point x="825" y="569"/>
      <point x="871" y="736" type="curve"/>
      <point x="834" y="728"/>
      <point x="797" y="724"/>
      <point x="760" y="724" type="curve" smooth="yes"/>
      <point x="724" y="724"/>
      <point x="689" y="728"/>
      <point x="655" y="736" type="curve"/>
      <point x="710" y="538"/>
      <point x="728" y="407"/>
    </contour>
    <contour>
      <point x="394" y="-147" type="curve"/>
      <point x="415" y="-131" type="line"/>
      <point x="377" y="-61"/>
      <point x="322" y="26"/>
      <point x="290" y="69" type="curve"/>
      <point x="325" y="126"/>
      <point x="364" y="204"/>
      <point x="403" y="287" type="curve"/>
      <point x="381" y="299" type="line"/>
      <point x="300" y="212"/>
      <point x="195" y="118"/>
      <point x="126" y="65" type="curve"/>
      <point x="201" y="18"/>
      <point x="312" y="-69"/>
    </contour>
    <contour>
      <point x="624" y="-147" type="curve"/>
      <point x="645" y="-131" type="line"/>
      <point x="606" y="-61"/>
      <point x="551" y="26"/>
      <point x="519" y="69" type="curve"/>
      <point x="554" y="126"/>
      <point x="594" y="204"/>
      <point x="632" y="287" type="curve"/>
      <point x="610" y="299" type="line"/>
      <point x="529" y="212"/>
      <point x="425" y="118"/>
      <point x="355" y="65" type="curve"/>
      <point x="432" y="18"/>
      <point x="542" y="-69"/>
    </contour>
    <contour>
      <point x="394" y="324" type="curve"/>
      <point x="415" y="339" type="line"/>
      <point x="377" y="409"/>
      <point x="322" y="498"/>
      <point x="290" y="539" type="curve"/>
      <point x="325" y="597"/>
      <point x="364" y="675"/>
      <point x="403" y="758" type="curve"/>
      <point x="381" y="771" type="line"/>
      <point x="300" y="682"/>
      <point x="195" y="589"/>
      <point x="126" y="536" type="curve"/>
      <point x="201" y="489"/>
      <point x="312" y="402"/>
    </contour>
    <contour>
      <point x="624" y="324" type="curve"/>
      <point x="645" y="339" type="line"/>
      <point x="606" y="409"/>
      <point x="551" y="498"/>
      <point x="519" y="539" type="curve"/>
      <point x="554" y="597"/>
      <point x="594" y="675"/>
      <point x="632" y="758" type="curve"/>
      <point x="610" y="771" type="line"/>
      <point x="529" y="682"/>
      <point x="425" y="589"/>
      <point x="355" y="536" type="curve"/>
      <point x="432" y="489"/>
      <point x="542" y="402"/>
    </contour>
  </outline>
</glyph>
<glyph name="uni103CD" format="2">
  <advance width="1288"/>
  <unicode hex="103CD"/>
  <outline>
    <contour>
      <point x="1015" y="-112" type="curve"/>
      <point x="1041" y="-112" type="line"/>
      <point x="1057" y="381"/>
      <point x="1080" y="569"/>
      <point x="1124" y="736" type="curve"/>
      <point x="1087" y="728"/>
      <point x="1050" y="724"/>
      <point x="1014" y="724" type="curve" smooth="yes"/>
      <point x="978" y="724"/>
      <point x="943" y="728"/>
      <point x="908" y="736" type="curve"/>
      <point x="963" y="538"/>
      <point x="981" y="407"/>
    </contour>
    <contour>
      <point x="394" y="-147" type="curve"/>
      <point x="414" y="-131" type="line"/>
      <point x="377" y="-61"/>
      <point x="322" y="26"/>
      <point x="290" y="69" type="curve"/>
      <point x="325" y="126"/>
      <point x="364" y="204"/>
      <point x="403" y="287" type="curve"/>
      <point x="381" y="299" type="line"/>
      <point x="300" y="212"/>
      <point x="195" y="118"/>
      <point x="126" y="65" type="curve"/>
      <point x="201" y="18"/>
      <point x="312" y="-69"/>
    </contour>
    <contour>
      <point x="624" y="-147" type="curve"/>
      <point x="644" y="-131" type="line"/>
      <point x="605" y="-61"/>
      <point x="551" y="26"/>
      <point x="518" y="69" type="curve"/>
      <point x="553" y="126"/>
      <point x="594" y="204"/>
      <point x="631" y="287" type="curve"/>
      <point x="609" y="299" type="line"/>
      <point x="529" y="212"/>
      <point x="425" y="118"/>
      <point x="355" y="65" type="curve"/>
      <point x="431" y="18"/>
      <point x="542" y="-69"/>
    </contour>
    <contour>
      <point x="394" y="324" type="curve"/>
      <point x="414" y="339" type="line"/>
      <point x="377" y="409"/>
      <point x="322" y="498"/>
      <point x="290" y="539" type="curve"/>
      <point x="325" y="597"/>
      <point x="364" y="675"/>
      <point x="403" y="758" type="curve"/>
      <point x="381" y="771" type="line"/>
      <point x="300" y="682"/>
      <point x="195" y="589"/>
      <point x="126" y="536" type="curve"/>
      <point x="201" y="489"/>
      <point x="312" y="402"/>
    </contour>
    <contour>
      <point x="624" y="324" type="curve"/>
      <point x="644" y="339" type="line"/>
      <point x="605" y="409"/>
      <point x="551" y="498"/>
      <point x="518" y="539" type="curve"/>
      <point x="553" y="597"/>
      <point x="594" y="675"/>
      <point x="631" y="758" type="curve"/>
      <point x="609" y="771" type="line"/>
      <point x="529" y="682"/>
      <point x="425" y="589"/>
      <point x="355" y="536" type="curve"/>
      <point x="431" y="489"/>
      <point x="542" y="402"/>
    </contour>
    <contour>
      <point x="761" y="-112" type="curve"/>
      <point x="787" y="-112" type="line"/>
      <point x="802" y="381"/>
      <point x="825" y="569"/>
      <point x="871" y="736" type="curve"/>
      <point x="833" y="728"/>
      <point x="796" y="724"/>
      <point x="760" y="724" type="curve" smooth="yes"/>
      <point x="724" y="724"/>
      <point x="689" y="728"/>
      <point x="655" y="736" type="curve"/>
      <point x="709" y="538"/>
      <point x="728" y="407"/>
    </contour>
  </outline>
</glyph>
<glyph name="uni103CE" format="2">
  <advance width="1593"/>
  <unicode hex="103CE"/>
  <outline>
    <contour>
      <point x="1201" y="-120" type="curve"/>
      <point x="1221" y="-105" type="line"/>
      <point x="1105" y="79"/>
      <point x="1030" y="209"/>
      <point x="985" y="293" type="curve"/>
      <point x="1044" y="411"/>
      <point x="1113" y="551"/>
      <point x="1200" y="747" type="curve"/>
      <point x="1178" y="757" type="line"/>
      <point x="1034" y="551"/>
      <point x="876" y="366"/>
      <point x="793" y="281" type="curve"/>
      <point x="881" y="201"/>
      <point x="1002" y="94"/>
    </contour>
    <contour>
      <point x="140" y="150" type="curve"/>
      <point x="188" y="188"/>
      <point x="258" y="229"/>
      <point x="402" y="264" type="curve"/>
      <point x="402" y="227"/>
      <point x="400" y="192"/>
      <point x="398" y="157" type="curve"/>
      <point x="456" y="201"/>
      <point x="559" y="239"/>
      <point x="742" y="272" type="curve"/>
      <point x="742" y="297" type="line"/>
      <point x="572" y="315"/>
      <point x="449" y="350"/>
      <point x="393" y="389" type="curve"/>
      <point x="398" y="354"/>
      <point x="401" y="321"/>
      <point x="402" y="289" type="curve"/>
      <point x="268" y="309"/>
      <point x="182" y="349"/>
      <point x="137" y="383" type="curve"/>
      <point x="145" y="342"/>
      <point x="148" y="304"/>
      <point x="148" y="267" type="curve" smooth="yes"/>
      <point x="148" y="227"/>
      <point x="144" y="189"/>
    </contour>
    <contour>
      <point x="1464" y="-120" type="curve"/>
      <point x="1483" y="-105" type="line"/>
      <point x="1369" y="79"/>
      <point x="1291" y="209"/>
      <point x="1248" y="293" type="curve"/>
      <point x="1307" y="411"/>
      <point x="1374" y="551"/>
      <point x="1463" y="747" type="curve"/>
      <point x="1442" y="757" type="line"/>
      <point x="1295" y="551"/>
      <point x="1139" y="366"/>
      <point x="1056" y="281" type="curve"/>
      <point x="1144" y="201"/>
      <point x="1264" y="94"/>
    </contour>
  </outline>
</glyph>
<glyph name="uni103CF" format="2">
  <advance width="1147"/>
  <unicode hex="103CF"/>
  <outline>
    <contour>
      <point x="1006" y="-126" type="curve"/>
      <point x="1027" y="-110" type="line"/>
      <point x="952" y="7"/>
      <point x="891" y="110"/>
      <point x="854" y="166" type="curve"/>
      <point x="899" y="247"/>
      <point x="951" y="352"/>
      <point x="1012" y="479" type="curve"/>
      <point x="989" y="492" type="line"/>
      <point x="876" y="352"/>
      <point x="746" y="225"/>
      <point x="681" y="166" type="curve"/>
      <point x="765" y="98"/>
      <point x="859" y="13"/>
    </contour>
    <contour>
      <point x="435" y="-126" type="curve"/>
      <point x="456" y="-110" type="line"/>
      <point x="382" y="7"/>
      <point x="321" y="110"/>
      <point x="283" y="166" type="curve"/>
      <point x="328" y="247"/>
      <point x="380" y="352"/>
      <point x="442" y="479" type="curve"/>
      <point x="418" y="492" type="line"/>
      <point x="305" y="352"/>
      <point x="175" y="225"/>
      <point x="110" y="166" type="curve"/>
      <point x="195" y="98"/>
      <point x="289" y="13"/>
    </contour>
    <contour>
      <point x="722" y="-126" type="curve"/>
      <point x="743" y="-110" type="line"/>
      <point x="670" y="7"/>
      <point x="608" y="110"/>
      <point x="572" y="166" type="curve"/>
      <point x="617" y="247"/>
      <point x="668" y="352"/>
      <point x="730" y="479" type="curve"/>
      <point x="707" y="492" type="line"/>
      <point x="594" y="352"/>
      <point x="464" y="225"/>
      <point x="399" y="166" type="curve"/>
      <point x="483" y="98"/>
      <point x="577" y="13"/>
    </contour>
    <contour>
      <point x="172" y="538" type="curve"/>
      <point x="220" y="572"/>
      <point x="290" y="609"/>
      <point x="433" y="640" type="curve"/>
      <point x="433" y="605"/>
      <point x="430" y="571"/>
      <point x="426" y="538" type="curve"/>
      <point x="472" y="572"/>
      <point x="543" y="609"/>
      <point x="686" y="641" type="curve"/>
      <point x="686" y="607"/>
      <point x="684" y="575"/>
      <point x="682" y="543" type="curve"/>
      <point x="741" y="583"/>
      <point x="845" y="617"/>
      <point x="1028" y="648" type="curve"/>
      <point x="1028" y="672" type="line"/>
      <point x="856" y="687"/>
      <point x="734" y="719"/>
      <point x="678" y="752" type="curve"/>
      <point x="683" y="721"/>
      <point x="685" y="692"/>
      <point x="686" y="664" type="curve"/>
      <point x="552" y="683"/>
      <point x="467" y="717"/>
      <point x="421" y="747" type="curve"/>
      <point x="427" y="718"/>
      <point x="430" y="691"/>
      <point x="432" y="664" type="curve"/>
      <point x="299" y="683"/>
      <point x="214" y="718"/>
      <point x="169" y="747" type="curve"/>
      <point x="177" y="709"/>
      <point x="180" y="673"/>
      <point x="180" y="638" type="curve" smooth="yes"/>
      <point x="180" y="604"/>
      <point x="177" y="571"/>
    </contour>
  </outline>
</glyph>
<glyph name="uni103D0" format="2">
  <advance width="874"/>
  <unicode hex="103D0"/>
  <outline>
    <contour>
      <point x="698" y="-45" type="curve"/>
      <point x="719" y="-30" type="line"/>
      <point x="458" y="388"/>
      <point x="373" y="557"/>
      <point x="317" y="722" type="curve"/>
      <point x="264" y="667"/>
      <point x="204" y="626"/>
      <point x="138" y="602" type="curve"/>
      <point x="294" y="469"/>
      <point x="382" y="369"/>
    </contour>
  </outline>
</glyph>
<glyph name="uni103D1" format="2">
  <advance width="544"/>
  <unicode hex="103D1"/>
  <outline>
    <contour>
      <point x="271" y="-112" type="curve"/>
      <point x="297" y="-112" type="line"/>
      <point x="311" y="381"/>
      <point x="334" y="569"/>
      <point x="380" y="736" type="curve"/>
      <point x="342" y="728"/>
      <point x="305" y="724"/>
      <point x="269" y="724" type="curve" smooth="yes"/>
      <point x="233" y="724"/>
      <point x="198" y="728"/>
      <point x="164" y="736" type="curve"/>
      <point x="219" y="538"/>
      <point x="237" y="407"/>
    </contour>
  </outline>
</glyph>
<glyph name="uni103D2" format="2">
  <advance width="544"/>
  <unicode hex="103D2"/>
  <outline>
    <contour>
      <point x="267" y="-112" type="curve"/>
      <point x="293" y="-112" type="line"/>
      <point x="304" y="119"/>
      <point x="334" y="272"/>
      <point x="380" y="383" type="curve"/>
      <point x="347" y="377"/>
      <point x="316" y="374"/>
      <point x="287" y="373" type="curve"/>
      <point x="306" y="554"/>
      <point x="354" y="683"/>
      <point x="381" y="748" type="curve"/>
      <point x="341" y="740"/>
      <point x="302" y="737"/>
      <point x="264" y="737" type="curve" smooth="yes"/>
      <point x="230" y="737"/>
      <point x="197" y="739"/>
      <point x="165" y="744" type="curve"/>
      <point x="197" y="676"/>
      <point x="232" y="564"/>
      <point x="263" y="373" type="curve"/>
      <point x="229" y="373"/>
      <point x="197" y="376"/>
      <point x="164" y="383" type="curve"/>
      <point x="219" y="250"/>
      <point x="242" y="128"/>
    </contour>
  </outline>
</glyph>
<glyph name="uni103D3" format="2">
  <advance width="696"/>
  <unicode hex="103D3"/>
  <outline>
    <contour>
      <point x="570" y="-120" type="curve"/>
      <point x="587" y="-105" type="line"/>
      <point x="460" y="79"/>
      <point x="376" y="209"/>
      <point x="327" y="293" type="curve"/>
      <point x="392" y="411"/>
      <point x="467" y="551"/>
      <point x="564" y="747" type="curve"/>
      <point x="545" y="757" type="line"/>
      <point x="384" y="551"/>
      <point x="215" y="366"/>
      <point x="122" y="281" type="curve"/>
      <point x="221" y="201"/>
      <point x="350" y="94"/>
    </contour>
  </outline>
</glyph>
<glyph name="uni103D4" format="2">
  <advance width="528"/>
  <unicode hex="103D4"/>
  <outline>
    <contour>
      <point x="378" y="325" type="curve"/>
      <point x="399" y="343" type="line"/>
      <point x="335" y="426"/>
      <point x="291" y="494"/>
      <point x="264" y="537" type="curve"/>
      <point x="299" y="594"/>
      <point x="334" y="665"/>
      <point x="386" y="756" type="curve"/>
      <point x="364" y="772" type="line"/>
      <point x="277" y="671"/>
      <point x="171" y="580"/>
      <point x="122" y="537" type="curve"/>
      <point x="190" y="487"/>
      <point x="262" y="428"/>
    </contour>
    <contour>
      <point x="378" y="-147" type="curve"/>
      <point x="399" y="-129" type="line"/>
      <point x="335" y="-46"/>
      <point x="291" y="22"/>
      <point x="264" y="65" type="curve"/>
      <point x="299" y="122"/>
      <point x="334" y="192"/>
      <point x="386" y="285" type="curve"/>
      <point x="364" y="299" type="line"/>
      <point x="277" y="199"/>
      <point x="171" y="106"/>
      <point x="122" y="65" type="curve"/>
      <point x="190" y="15"/>
      <point x="262" y="-44"/>
    </contour>
  </outline>
</glyph>
<glyph name="uni103D5" format="2">
  <advance width="881"/>
  <unicode hex="103D5"/>
  <outline>
    <contour>
      <point x="437" y="-112" type="curve"/>
      <point x="463" y="-112" type="line"/>
      <point x="478" y="211"/>
      <point x="501" y="425"/>
      <point x="546" y="547" type="curve"/>
      <point x="507" y="541"/>
      <point x="471" y="538"/>
      <point x="436" y="538" type="curve" smooth="yes"/>
      <point x="401" y="538"/>
      <point x="366" y="541"/>
      <point x="331" y="547" type="curve"/>
      <point x="385" y="401"/>
      <point x="403" y="231"/>
    </contour>
    <contour>
      <point x="134" y="521" type="curve"/>
      <point x="182" y="555"/>
      <point x="268" y="592"/>
      <point x="418" y="625" type="curve"/>
      <point x="418" y="646" type="line"/>
      <point x="279" y="665"/>
      <point x="176" y="709"/>
      <point x="130" y="737" type="curve"/>
      <point x="137" y="694"/>
      <point x="140" y="655"/>
      <point x="140" y="617" type="curve" smooth="yes"/>
      <point x="140" y="585"/>
      <point x="138" y="553"/>
    </contour>
    <contour>
      <point x="751" y="532" type="curve"/>
      <point x="744" y="575"/>
      <point x="741" y="614"/>
      <point x="741" y="652" type="curve" smooth="yes"/>
      <point x="741" y="684"/>
      <point x="743" y="716"/>
      <point x="747" y="748" type="curve"/>
      <point x="700" y="716"/>
      <point x="613" y="677"/>
      <point x="463" y="644" type="curve"/>
      <point x="463" y="623" type="line"/>
      <point x="602" y="605"/>
      <point x="705" y="560"/>
    </contour>
  </outline>
</glyph>
